<?xml version="1.0" encoding="UTF-8"?><svg id="_レイヤー_2" xmlns="http://www.w3.org/2000/svg" viewBox="0 0 885.9001455 1177.5955197"><defs><style>.cls-1{fill:#ece6e1;}</style></defs><g id="_レイヤー_1-2"><path class="cls-1" d="m292.4130332.0055776c1.703873-.0688434,9.6631579.3789474,18.1894737,8.3368421s13.2631579,12.6947368,13.4526316,13.2631579,3.3157895,4.4526316,9.4736842,19.8c6.1578947,15.3473684,31.9263158,12.1263158,31.9263158,12.1263158,0,0,26.6842105-12.0947368,60.0315789,13.4210526,33.3473684,25.5157895,31.7052632,47.3684211,31.7052632,47.3684211,0,0-3.6,19.2631579-4.6105263,21.2842105-1.0105263,2.0210526-3.7263158,17.5578947,18.8210526,29.4947368,22.5473684,11.9368421,71.4315789,5.0526316,107.0526316-23.2421053,0,0,6.5052632-6.6315789,8.0842105-12.7578947s-.4421053-26.5894737,31.5157895-20.2736842c0,0,4.5473684-.0631579-.6315789,7.9578947,0,0,.5684211,43.1368421,5.6210526,68.9052632,0,0-1.2631579,15.9157895-5.4315789,34.6105263-4.1684211,18.6947368,8.7157895,26.0210526,8.7157895,26.0210526,0,0,9.2210526,4.4210526,48.6315789,12.8842105,0,0,6.5684211.6315789,21.4736842,14.0210526,14.9052632,13.3894737,79.3263158,55.0736842,114.6947368,60.8842105,35.3684211,5.8105263,57.8526316,1.2631579,70.3578947,20.2105263,12.5052632,18.9473684-3.4105263,143.2421053-24.6315789,216.7578947-21.2210526,73.5157895-21.9789474,53.8105263-31.8315789,134.1473684,0,0-1.5157895,33.7263158,12.8842105,64.0421053,0,0,9.8526316,28.4210526,6.0631579,62.3368421-3.7894737,33.9157895-54.3157895,84.8210526-54.3157895,84.8210526,0,0-36.8842105,52.5473684-52.2947368,59.6210526s-52.8-10.1052632-59.6210526-7.3263158-15.6631579-1.8315789-49.9578947,39.0947368c-34.2947368,40.9263158-118.8,54.1263158-118.8,54.1263158,0,0-12.5052632-4.1052632-45.8526316,60.6947368,0,0-1.6105263,13.3578947-1.3263158,51.7263158,0,0-2.4631579,8.3368421-37.0736842-1.7684211-34.6105263-10.1052632-34.6105263-25.1368421-82.7368421-22.7368421-48.1263158,2.4-74.4-24.3789474-107.9368421-51.8526316,0,0-23.9368421-20.6526316-78-17.8736842s-91.9578947-18.6947368-126.4421053-134.6526316c0,0-21.7894737-71.4315789-27.4736842-76.3578947,0,0-6.4421053-14.9684211,3.0315789-24.4421053s24.6315789-15.9157895,33.7263158-26.3368421c0,0,14.3368421-14.0842105,20.0210526-29.2421053,0,0,5.4315789-7.2,21.0947368-8.0842105,15.6631579-.8842105,25.2631579-17.3052632,28.4210526-33.0947368,3.1578947-15.7894737,12.3157895-63.5368421,19.7052632-70.9263158,7.3894737-7.3894737,37.3263158-40.1684211,39.9789474-45.6631579s-3.6-40.3578947,12.3157895-54.3789474c15.9157895-14.0210526-17.5578947-71.8105263-17.5578947-71.8105263,0,0-38.1473684-66.6947368-37.8947368-70.7368421s-7.5789474,23.7473684-32.3368421-4.2947368-28.5473684-87.9157895-26.2736842-95.2421053,1.7684211-37.3894737,81.8526316-71.4947368c80.0842105-34.1052632,85.6421053-53.8105263,90.1894737-99.2842105s-5.6842105-100.8,20.0842105-143.6210526c0,0,15.1578947-19.7052632,33.9157895-20.4631579Z"/></g></svg>