<?xml version="1.0" encoding="UTF-8"?><svg id="_レイヤー_2" xmlns="http://www.w3.org/2000/svg" viewBox="0 0 938.4667523 1188.5665317"><defs><style>.cls-1{fill:#ece6e1;}</style></defs><g id="_レイヤー_1-2"><path class="cls-1" d="m395.0125202.0941619c1.6995624.1393197,9.5449481,1.5537655,17.0378866,10.4914398s11.6171971,14.2164845,11.7359854,14.8037597,2.7484348,4.8235354,6.9900558,20.8069655c4.241621,15.9834301,30.2105157,15.9267672,30.2105157,15.9267672,0,0,27.9592881-8.7525973,57.9484978,20.6370233,29.9892097,29.3896205,25.6961786,50.8792436,25.6961786,50.8792436,0,0-5.9207546,18.6808436-7.1700529,20.5636794s-5.8383095,16.9728972,15.0862591,31.5685969c20.9245686,14.5956997,70.2833779,13.7202897,109.0871776-10.0224282,0,0,7.2649601-5.789356,9.5787483-11.6775819,2.3137882-5.8882259,2.8016318-26.4451589,33.7516161-16.2817587,0,0,4.52117.4914977-1.5966947,7.8216077,0,0-4.6928745,42.8845797-2.818285,69.0766878,0,0-3.1933893,15.6432154-9.6090549,33.6906017-6.4156656,18.0473864,5.4796547,26.8892832,5.4796547,26.8892832,0,0,8.6135295,5.5118624,46.6988963,18.7148722,0,0,6.4424909,1.4273604,19.6048861,16.5335256,13.1623952,15.1061652,72.0232357,64.3306193,106.4199009,74.4081611,34.3966652,10.0775418,57.2674666,8.3042047,67.3704141,28.6343506,10.1029475,20.3301458-20.8419261,141.7587617-50.8641212,212.1403799-30.0221951,70.3816182-28.3729731,50.7308709-47.9427629,129.2681607,0,0-5.614695,33.2901967,4.9834043,65.1349354,0,0,6.3155365,29.4099402-1.578986,62.6111058-7.8945225,33.2011657-64.2480138,77.5693798-64.2480138,77.5693798,0,0-43.0131945,47.6606338-59.1709183,52.8035211-16.1577238,5.1428873-51.174915-16.4646414-58.2837931-14.5376851s-15.3231938-3.7267854-54.3499661,32.7149948c-39.0267723,36.4417802-124.5108214,39.2447884-124.5108214,39.2447884,0,0-11.9117451-5.5986714-52.9076807,54.6542974,0,0-3.2264396,13.0620532-7.6202818,51.1791184,0,0-3.4608034,7.9745171-36.5818263-6.2733851s-31.2891343-29.167438-79.3492102-32.6504498c-48.060076-3.4830117-70.8743874-33.2643095-100.8130511-64.620322,0,0-21.2414979-23.4158572-75.2403457-27.2462653-53.9988478-3.830408-88.9941392-29.7622374-109.0895972-149.0583676,0,0-12.9217386-73.5546076-17.963213-79.1369344,0,0-4.5698951-15.6419439,5.9877253-23.890461,10.5576205-8.2485171,26.3876257-12.7953212,36.6845786-22.0303273,0,0,15.9464109-12.2320074,23.4355349-26.5841865,0,0,6.2685521-6.4843893,21.9227173-5.4531503,15.6541652,1.031239,27.1838312-14.0974679,32.2424403-29.3843987,5.0586091-15.2869308,19.9671827-61.5623309,28.2021266-67.9961743,8.234944-6.4338434,41.9433902-35.3200781,45.2458894-40.4505836s1.345224-40.4958027,18.8511161-52.4726978c17.5058921-11.976895-8.6755192-73.4150306-8.6755192-73.4150306,0,0-29.7349799-70.8465991-28.9916227-74.8277871s-10.4165312,22.6467178-31.5724114-8.2035942-17.6203411-90.7395276-14.4707513-97.7341417,6.3118701-36.8952619,89.9555311-60.9864994c83.643661-24.0912375,91.5615955-42.9722837,101.6169166-87.5528291s6.6425885-100.7413831,37.4375093-140.1028735c0,0,17.4463776-17.7111004,36.1568179-16.1773336Z"/></g></svg>