<?xml version="1.0" encoding="UTF-8"?><svg id="_レイヤー_2" xmlns="http://www.w3.org/2000/svg" xmlns:xlink="http://www.w3.org/1999/xlink" viewBox="0 0 1147.9148936 1419.5744681"><defs><style>.cls-1{fill:#ece6e1;}.cls-2{clip-path:url(#clippath);}.cls-3{fill:none;}</style><clipPath id="clippath"><rect class="cls-3" width="1147.9148936" height="1419.5744681"/></clipPath></defs><g id="_レイヤー_1-2"><g class="cls-2"><path class="cls-1" d="m799.2637362-169.8731262c2.1920973.1796947,12.3110837,2.0040483,21.9754834,13.5318696,9.6643997,11.5278213,14.9838725,18.3364361,15.1370858,19.0939042s3.544934,6.2214009,9.015781,26.8368451c5.4708471,20.6154442,38.9655537,20.5423604,38.9655537,20.5423604,0,0,36.061918-11.2891088,74.742031,26.6176534,38.6801129,37.9067623,33.1429571,65.6240998,33.1429571,65.6240998,0,0-7.6365952,24.0945709-9.2479415,26.5230545-1.6113463,2.4284836-7.5302575,21.8916599,19.4582723,40.7172081,26.9885298,18.8255482,90.6515718,17.6964435,140.7007519-12.926938,0,0,9.3703529-7.4671172,12.3546792-15.0617569,2.9843264-7.5946397,3.6135476-34.1089926,43.5328686-21.0002288,0,0,5.8314097.6339342-2.0594184,10.0883175,0,0-6.0528743,55.3125742-3.6350269,89.0951817,0,0-4.1188368,20.176635-12.3937687,43.4541722-8.2749319,23.2775372,7.0676642,34.6818246,7.0676642,34.6818246,0,0,11.1097391,7.1092057,60.2322836,24.138461,0,0,8.3095313,1.8410109,25.286402,21.3249581,16.9768706,19.4839471,92.8956422,82.9736978,137.2604957,95.9717214,44.3648535,12.9980236,73.8636363,10.7107717,86.8944281,36.9326143,13.0307919,26.2218426-26.8819373,182.8405941-65.6045949,273.6188763-38.7226576,90.7782822-36.5954894,65.4327286-61.836624,166.7302042,0,0-7.2418392,42.9377293,6.4275998,84.0111055,0,0,8.1457854,37.9329705-2.0365777,80.7558675-10.1823631,42.822897-82.8671531,100.0490644-82.8671531,100.0490644,0,0-55.4784617,61.4727336-76.3187102,68.1060349-20.8402485,6.6333013-66.0054571-21.2361111-75.1744951-18.7507209-9.1690381,2.4853902-19.7638708-4.8068116-70.1006411,42.1958333-50.3367703,47.0026449-160.5941832,50.6179678-160.5941832,50.6179678,0,0-15.3637809-7.221172-68.2403801,70.493168,0,0-4.161465,16.8474494-9.8286471,66.0108787,0,0-4.4637477,10.2855402-47.1832765-8.0914184-42.7195288-18.3769586-40.356757-37.620191-102.3446915-42.1125831-61.9879345-4.4923921-91.4138564-42.90434-130.0287751-83.3473566,0,0-27.3973054-30.2017963-97.0450738-35.1422605-69.6477684-4.9404642-114.7847307-38.3873638-140.7038726-192.2556331,0,0-16.6664715-94.8708072-23.1689703-102.070898,0,0-5.8942554-20.174995,7.7229742-30.8139407,13.6172296-10.6389457,34.0347863-16.5034183,47.3158065-28.4147384,0,0,20.5676969-15.7768555,30.2271766-34.2883106,0,0,8.0851848-8.3635719,28.2759429-7.0334788,20.1907581,1.3300931,35.0617329-18.1829283,41.586332-37.9000271,6.5245991-19.7170988,25.7536924-79.4031566,36.3751314-87.7015343,10.6214391-8.2983777,54.098627-45.5558725,58.3581939-52.1732036,4.2595669-6.6173311,1.7350713-52.2315273,24.3141885-67.6793386,22.5791173-15.4478113-11.1896934-94.6907807-11.1896934-94.6907807,0,0-38.3522072-91.3780151-37.3934243-96.5129554.9587829-5.1349403-13.4352525,29.2097595-40.7221282-10.5810041-27.2868756-39.7907636-22.7267338-117.0359343-18.6643897-126.0575947,4.0623441-9.0216604,8.1410565-47.5875461,116.0247349-78.6604486,107.8836784-31.0729025,118.0962384-55.4256949,131.0656016-112.9257275,12.9693633-57.5000326,8.5676174-129.9363377,48.2869372-180.7048278,0,0,22.5023554-22.8437952,46.6351003-20.8655412Z"/></g></g></svg>