<?xml version="1.0" encoding="UTF-8"?><svg id="_レイヤー_2" xmlns="http://www.w3.org/2000/svg" viewBox="0 0 90.22 39.65"><defs><style>.cls-1{fill:#fff;}.cls-2{fill:#bde4ff;}.cls-3{fill:#f4ac45;}.cls-4{fill:#0268b9;}</style></defs><g id="_レイヤー_1-2"><g><path class="cls-2" d="m41.96,20.97c-.05-.24.26-9.25.26-9.25h27.51v9.45l-27.77-.2Z"/><rect class="cls-1" x="45.04" y="14.93" width="4.34" height="3.56"/><rect class="cls-1" x="53.68" y="14.93" width="4.34" height="3.56"/><rect class="cls-1" x="62.39" y="14.93" width="4.34" height="3.56"/><rect class="cls-1" x="49.93" y="3.02" width="5.47" height="8.7"/><rect class="cls-1" x="58.38" y="3.02" width="5.47" height="8.7"/><rect class="cls-3" x="51.59" width="2.16" height="3.02"/><rect class="cls-3" x="60.03" width="2.16" height="3.02"/><polygon class="cls-1" points="0 21.17 90.22 21.17 79.53 39.65 10.54 30.43 0 21.17"/><path class="cls-4" d="m10.54,30.43c-.02-.26,74.39-.12,74.39-.12l-5.4,9.34-56.06-.26s-12.61-4.01-12.92-8.96Z"/></g></g></svg>