<?xml version="1.0" encoding="UTF-8"?><svg id="_レイヤー_2" xmlns="http://www.w3.org/2000/svg" xmlns:xlink="http://www.w3.org/1999/xlink" viewBox="0 0 270 140"><defs><style>.cls-1{stroke:#fff;stroke-miterlimit:10;stroke-width:.75px;}.cls-1,.cls-2{fill:#4497bb;}.cls-3{clip-path:url(#clippath);}</style><clipPath id="clippath"><rect class="cls-2" width="270" height="140"/></clipPath></defs><g id="_レイヤー_1-2"><g><rect class="cls-2" width="270" height="140"/><g class="cls-3"><g><g><circle class="cls-1" cx="60.62" cy="67.83" r="47.16"/><path class="cls-1" d="m-2.53,110.59c.73-.44,14.92-9.25,31.09-7.84,16.17,1.4,84.4-.58,88.9-3.49s5.67,5.67,5.67,5.67c0,0-14.09,34.86-15.98,35.15s-23.68,3.34-23.68,3.34c0,0-54.62-6.68-67.99-1.16-13.36,5.52-18.01-31.67-18.01-31.67Z"/><path class="cls-1" d="m-16.86,34.85S-6.31,26.72,2.6,28.75c8.91,2.03,32.54,11.62,34.67,15.69,2.13,4.07.48,9.3.48,9.3,0,0-42.03-2.03-46-4.65s-12.4-9.3-8.62-14.24Z"/><path class="cls-1" d="m38.65,45.51c.1-.39,10.85-13.07,20.53-9.49,9.68,3.58,18.88,23.05,18.88,23.05,0,0,1.26,12.78-8.72,15.98-9.98,3.2-24.79-3.1-29.34-12.88-4.55-9.78-1.36-16.66-1.36-16.66Z"/><polygon class="cls-1" points="36.86 53.74 29.62 60.81 38.72 60.81 36.86 53.74"/><ellipse class="cls-1" cx="49.23" cy="52.87" rx="4.12" ry="4.84"/><circle class="cls-2" cx="47.79" cy="50.62" r="1.03"/><path class="cls-1" d="m76.49,54.42l1.45,8.52s25.86,8.13,34.77,9.98c2.78.57,6.16,1.26,9.56,1.8,7.52,1.17,15.14,1.57,16.54-1.8,2.03-4.89-8.28-17.04-12.78-17.28s-35.3-5.52-49.54-1.21Z"/><path class="cls-1" d="m35.77,107.92c-.23,1.89,29.88,16.68,50.4.82,20.46-15.81,21.08-30.31,19.88-30.51l-70.28,29.68Z"/><path class="cls-1" d="m58.34,163.9l8.86,1.74,17-26.44s-27.31,0-31.52-3.2c-4.21-3.2-15.11-1.6-15.11-1.6l20.77,29.49Z"/></g><path class="cls-1" d="m3.09,28.43s-8.33,17.3-7.63,21.08c.7,3.77-14.65-5.09-13.27-13.46,1.39-8.37,20.9-7.62,20.9-7.62Z"/><path class="cls-1" d="m118.99,74.4l7.12-18.74s13.51,4.8,13.87,14.6c.36,9.8-20.99,4.14-20.99,4.14Z"/></g></g></g></g></svg>