<?xml version="1.0" encoding="UTF-8"?><svg id="_レイヤー_2" xmlns="http://www.w3.org/2000/svg" xmlns:xlink="http://www.w3.org/1999/xlink" viewBox="0 0 533.43 105.06"><defs><style>.cls-1{clip-path:url(#clippath-11);}.cls-2{stroke:#d5255a;stroke-width:3px;}.cls-2,.cls-3{fill:none;}.cls-4{clip-path:url(#clippath-2);}.cls-5{clip-path:url(#clippath-13);}.cls-6{letter-spacing:-.1em;}.cls-7{clip-path:url(#clippath-6);}.cls-8{clip-path:url(#clippath-7);}.cls-9{clip-path:url(#clippath-1);}.cls-10{clip-path:url(#clippath-4);}.cls-11{fill:#e2779b;}.cls-12{clip-path:url(#clippath-12);}.cls-13{letter-spacing:-.1em;}.cls-14{clip-path:url(#clippath-9);}.cls-15{clip-path:url(#clippath);}.cls-16{clip-path:url(#clippath-3);}.cls-17{fill:#d5255a;font-family:VDL-YotaG-Medium-90ms-RKSJ-H, VDL-YotaG;font-size:44.52px;font-weight:500;}.cls-18{clip-path:url(#clippath-8);}.cls-19{clip-path:url(#clippath-14);}.cls-20{clip-path:url(#clippath-5);}.cls-21{letter-spacing:.15em;}.cls-22{clip-path:url(#clippath-10);}</style><clipPath id="clippath"><path class="cls-3" d="m62.13,16.87c-.92.63-1.59,2.01-2.61,2.34-.93.21-1.91.12-2.79-.26-.66-.26-1.37-.39-2.08-.38-2.91.24-5.53,2.03-6.08,5.34-.64,3.85-.12,5.26-1.73,9.1-2.8,6.65,1.14,8.23,6.45,10.11,5.73,2.03,11.21,14.51,13.59,13.02,3.72-3.7-8.5-14.77-7.27-19.5,3.96-1.49,5.05,8.34,7.66,8.81,1.63.19.79-4.05,0-8.29-1.03-5.56-1.98-11.13,2.81-6.69,3.88,3.6,1.6,10.6.93,15.41-.13.96-1.36,4.73-.71,5.41,1.22,1.29,3.32-4.19,3.64-4.91,1.25-2.79,3.17-5.12,4.36-7.89,1.4-3.26,2.34-7.88,1.82-11.48-.67-4.63-2.21-4.28-5.48-5.35-2.93-.96-3.42-3.41-6.11-5.34-.76-.61-1.7-.96-2.68-.99-1.22,0-2.39.62-3.74,1.55"/></clipPath><clipPath id="clippath-1"><path class="cls-3" d="m36.75,47.25c-1.11,3.46,2.45,4.37,1.36,7.3-1.89,5.08-12.72,6.98-10.15,14.05,1.57,4.3,5.62,2.22,8.82,3.5,4.02,1.61,2.63,4.1,2.06,7.63-.44,2.74-.5,6.87,2.6,8,2.28.83,5.02-.03,7.1-1.01,5.24-2.46,9.85-7.08,12.78-12.05,1.26-2.13,3.21-4.23,4.31-6.46,1.65-3.33-3.35-1.47-4.9-1.08-3.32.84-7.48,4.28-11.01,2.86-8.13-3.26,8.29-6.11,10.27-6.32,10.92-1.18-6.16-4.58-8.21-6.91-2.43-2.77-.47-4.4,2.73-3.43,2.75.83,6.06,5.24,9.23,5.06,1.9-.95-2.5-3.66-3.39-4.37l.06.04c-4-5.12-8.25-9.32-14.92-10.91-.79-.19-1.6-.29-2.41-.29-2.73,0-5.29,1.21-6.3,4.38"/></clipPath><clipPath id="clippath-2"><path class="cls-3" d="m94.46,20.24c-2.34.62-2.41,3.99-3.95,5.46-2.1,2.02-1.89.48-4.37.18-5.39-.64-2.96,6.62-4.38,10.8-1.03,3.04-9,13.71-8.27,14.61,1.91,2.36,4.33-2.75,5.32-3.83,1.15-1.26,3.41-7.89,4.87-6.31.95,1.02-3.36,5.99-1.15,6.98.9.4,2.07-.59,3.2-1.58s2.2-1.98,2.9-1.58c.4,3.06-3.08,4.29-4.92,5.81-4.59,3.81,4.33.75,5,.47,1.46-.64,2.85-1.41,4.17-2.3,2.83-1.84,5.38-4.08,7.56-6.65,3.54-4.24,5.52-10.3-1.18-12.14.89-2.91.2-10.07-3.78-10.07-.34,0-.68.05-1,.14"/></clipPath><clipPath id="clippath-3"><path class="cls-3" d="m96.53,57.74c-4.78.89-10.18,1.41-14.57,3.53-.84.41-2.88,1.45-1.83,2.46.89.86,2.92-.47,3.81-.8,2.47-.83,5.03-1.35,7.63-1.54,1.1-.1,16.22-1.91,13.37,2.46-.65.99-2.32.85-3.99.7-1.9-.17-3.82-.34-4.29,1.16-.58,1.86,2.52,3.23,3.7,4.1.89.65,1.97,2.15,1.8,3.13-.1.57-.63.97-1.88.93-1.41-.05-2.8-1.47-3.72-2.34-2.21-2.08-4.19-3.9-7.14-5.03-1.67-.64-5.52-2.37-6.76-.31-.93,1.53,3.62,3.58,4.81,4.86,1.69,1.84,3.07,3.93,4.11,6.19.94,2.03,4.06,13.48,8.5,9.74,2.3-1.94,1.84-7.97,5.45-8.52,2.88-.44,4.38,3.31,7.08,3.38,3.37.08,3.5-4.09,2.73-6.28-.91-2.58-3.3-4.32-4.59-6.7-1.79-3.31,3.99-6.16-.73-9.26-2.52-1.61-5.46-2.44-8.46-2.36-1.69.02-3.38.19-5.04.51"/></clipPath><clipPath id="clippath-4"><path class="cls-3" d="m82.53,74.62c.11.03.22.08.32.14l-.45-.35c.04.07.08.14.13.22"/></clipPath><clipPath id="clippath-5"><path class="cls-3" d="m68.86,67.51c-1.99,1.11-10.46,16.18-10.36,20.56.06,2.89.77,5.57,2.34,6.73,1.24.92,2.56.53,3.88.15.76-.28,1.56-.41,2.37-.41,2.59.19,2.43,2.69,2.94,4.94.38,1.69,1.22,4.89,2.97,5.45,2.41.77,4.54-2.31,5.34-4.41.48-1.28,1.18-5.63,2.72-5.9,1.22-.22,1.96,1.18,2.69,2.58.69,1.32,1.37,2.64,2.44,2.6,2.58-.09,2.23-5.51,2.11-7.3-.3-4.65-.5-8.97-2.23-13.35-1.06-2.69-2.16-5.47-3.9-7.68-.8-1.01-5.4-4.66-4.75-2.27,1.23,4.52,4.63,13.46,2.78,13.02-.86-.2-.55-2.77-1.69-2.55-1.31.25,1.79,15.31-2.63,12.33-2.55-1.72-1.13-6.29-.68-8.78.27-1.49-.19-12.16-1.43-10.39-.74,1.05-2.71,9.27-3.57,10.17-1.02,1.06-2.2.58-2.43-.93-.37-2.37,1.87-6.18,2.49-8.44.31-1.15,1-6.33-.72-6.33-.24.01-.47.08-.67.21"/></clipPath><clipPath id="clippath-6"><path class="cls-3" d="m110.86,42.07c-4.73,3.06-9.18,5.87-14.54,7.74-4.65,1.74-9.39,3.23-14.2,4.43-2.38.54-7.5,0-7.16,3.7.46,5.03,14.97-1.67,17.37-2.71,4.6-1.97,9.03-4.32,13.24-7.03,1.19-.77,9.13-5.08,8.18-6.9-.12-.27-.39-.44-.68-.43-.76,0-1.78.91-2.22,1.19"/></clipPath><clipPath id="clippath-7"><path class="cls-3" d="m115.43,36.4c-.42.22-.35.89-.88,1.11-.48.1-.98.12-1.47.05-.38-.04-.76-.05-1.15-.01-.92.17-1.24.68-.6,2.02.12.26.48.13.92,0,.67-.2,1.52-.41,2.02.77,1.69,4,2.61,3.02,3.43,1.56.71-1.26-1.31-1.63-1.15-2.67.15-.96,1.42-.93,1.43-1.81v-.03c0-.18-.05-.35-.12-.52-.17-.51-.65-.84-1.19-.82-.44.02-.87.14-1.26.35"/></clipPath><clipPath id="clippath-8"><path class="cls-3" d="m112.8,45.12c.05-.05.11-.1.17-.15.05-.11.09-.22.15-.32l-.32.47Z"/></clipPath><clipPath id="clippath-9"><path class="cls-3" d="m113.61,43.74s-2.15,2.26.89,1.96c2.14-.21,1.08-2.4-.08-2.4-.32,0-.62.17-.81.44"/></clipPath><clipPath id="clippath-10"><path class="cls-3" d="m108.44,38.43c-.43.67-1.5,1.05-.04,2.19,0,.77,1.19.97,1.78.29.52-.61.25-1.7.13-2.29-.05-.47-.42-.83-.89-.88-.42.04-.79.31-.98.69"/></clipPath><clipPath id="clippath-11"><path class="cls-3" d="m110.41,46.81c-.77.02-.95,1.21-.26,1.78,1.48,1.23,4.07-.86,2.41-2.07-.15-.12-.34-.18-.53-.18-.54,0-1.07.46-1.62.47"/></clipPath><clipPath id="clippath-12"><path class="cls-3" d="m106.66,41.05c-.56.22-.36.89-.61,1.31-.27.44.34.97.91.79,1.1-.35,1.01-2.17.06-2.17-.12,0-.24.03-.35.07"/></clipPath><clipPath id="clippath-13"><path class="cls-3" d="m107.55,47.94c-.56.22-.36.89-.61,1.31-.27.44.34.97.91.79,1.1-.35,1.01-2.17.06-2.17-.12,0-.24.03-.35.07"/></clipPath><clipPath id="clippath-14"><path class="cls-3" d="m2.66,1.17c-.51,2.31,1.28,5.7,1.94,7.74C6.12,13.54-.03,9.69,0,13.37c.03,3.59,8.16,7.44,4.4,8.6C0,23.33,5.88,26.63,7.49,28.79c-.75.86-2.46,1.5-2.22,2.88.47,2.64,4.72,3.24,6.68,3.78.58.16,2.27.55,2.56,1.25.63,1.5-.26.86-.9,1.79-1.11,1.62-2.12,2.25.41,3.68,1.75,1,3.83.72,5.84.45,1.85-.25,3.66-.5,5.11.24-.4,1.99-2.2,4.28,1.47,3.71,2.57-.4,4.77-2.06,7.26-2.75,2.69-.75,6.16-1.41,4.02-4.92-1.51-2.48-4.73-3.85-6.85-5.73-3.8-3.39-17.1-17.7-14.6-17.23,3.13.58,19.21,15.05,24.16,19.79,5.18,4.97,3.76.52,3.82-3.6.06-4.25,1.83-8.18,1.18-12.57-.24-1.58-.46-4.29-2.61-4.29-.63.03-1.21.36-1.55.9-.58.72-.97,1.44-2.19.3-1.03-.96-.99-3.61-1.78-4.94-.68-1.15-1.91-2.77-3.2-3.2-1.38-.46-2.08.47-2.71,1.39-.66.96-1.26,1.91-2.48,1.34-.19-.09-.36-.2-.53-.32-2.34-1.68-3.46-9.57-7.4-9.58-2.38,0-2.8,3.91-4.51,4.47-.89.29-3.32-1.25-5.9-2.79C8.18,1.42,5.68,0,4.13,0c-.72-.07-1.37.44-1.47,1.16"/></clipPath></defs><g id="_レイヤー_1-2"><g id="_グループ_61"><g id="_グループ_32"><g class="cls-15"><g id="_グループ_31"><rect id="_長方形_15" class="cls-11" x="44.05" y="15.32" width="36.63" height="42.3"/></g></g></g><g id="_グループ_34"><g class="cls-9"><g id="_グループ_33"><rect id="_長方形_16" class="cls-11" x="25.38" y="42.87" width="45.51" height="45.7"/></g></g></g><g id="_グループ_36"><g class="cls-4"><g id="_グループ_35"><rect id="_長方形_17" class="cls-11" x="72.77" y="20.1" width="33.18" height="34.49"/></g></g></g><g id="_グループ_38"><g class="cls-16"><g id="_グループ_37"><rect id="_長方形_18" class="cls-11" x="79.08" y="57.23" width="37.03" height="33.49"/></g></g></g><g id="_グループ_40"><g class="cls-10"><g id="_グループ_39"><rect id="_長方形_19" class="cls-11" x="82.4" y="74.4" width=".45" height=".35"/></g></g></g><g id="_グループ_42"><g class="cls-20"><g id="_グループ_41"><rect id="_長方形_20" class="cls-11" x="56.86" y="65.63" width="33.46" height="41.26" transform="translate(-6.84 6.34) rotate(-4.72)"/></g></g></g><g id="_グループ_44"><g class="cls-7"><g id="_グループ_43"><rect id="_長方形_21" class="cls-11" x="74.62" y="40.88" width="40.09" height="22.1"/></g></g></g><g id="_グループ_46"><g class="cls-8"><g id="_グループ_45"><rect id="_長方形_22" class="cls-11" x="110.7" y="36.05" width="7.73" height="8.28"/></g></g></g><g id="_グループ_48"><g class="cls-18"><g id="_グループ_47"><rect id="_長方形_23" class="cls-11" x="112.8" y="44.64" width=".32" height=".48"/></g></g></g><g id="_グループ_50"><g class="cls-14"><g id="_グループ_49"><rect id="_長方形_24" class="cls-11" x="111.46" y="43.3" width="5.18" height="2.7"/></g></g></g><g id="_グループ_52"><g class="cls-22"><g id="_グループ_51"><rect id="_長方形_25" class="cls-11" x="106.31" y="37.13" width="5.01" height="5.06" transform="translate(-6.69 48.19) rotate(-24.25)"/></g></g></g><g id="_グループ_54"><g class="cls-1"><g id="_グループ_53"><rect id="_長方形_26" class="cls-11" x="108.95" y="45.49" width="5.79" height="5.18" transform="translate(-9.82 52.28) rotate(-25.24)"/></g></g></g><g id="_グループ_56"><g class="cls-12"><g id="_グループ_55"><rect id="_長方形_27" class="cls-11" x="105.61" y="40.87" width="2.62" height="2.56" transform="translate(51.22 142.68) rotate(-82.53)"/></g></g></g><g id="_グループ_58"><g class="cls-5"><g id="_グループ_57"><rect id="_長方形_28" class="cls-11" x="106.49" y="47.76" width="2.62" height="2.56" transform="translate(45.17 149.55) rotate(-82.53)"/></g></g></g><g id="_グループ_60"><g class="cls-19"><g id="_グループ_59"><rect id="_長方形_29" class="cls-11" x="-.03" y="0" width="46.1" height="47.14"/></g></g></g></g><g id="_グループ_140"><line id="_線_4" class="cls-2" x1="214.12" y1="44.44" x2="210.98" y2="53.08"/><line id="_線_5" class="cls-2" x1="229.04" y1="55.05" x2="221.97" y2="59.76"/><line id="_線_6" class="cls-2" x1="222.76" y1="47.58" x2="217.26" y2="56.22"/></g><text class="cls-17" transform="translate(136.52 91.76)"><tspan class="cls-6" x="0" y="0">海街フラシティと</tspan><tspan class="cls-21" x="320.52" y="0">は</tspan><tspan class="cls-13" x="371.71" y="0">?</tspan></text></g></svg>