<?xml version="1.0" encoding="UTF-8"?><svg id="_レイヤー_2" xmlns="http://www.w3.org/2000/svg" xmlns:xlink="http://www.w3.org/1999/xlink" viewBox="0 0 867.9148936 43.787234"><defs><style>.cls-1{clip-path:url(#clippath);}.cls-2,.cls-3{fill:none;}.cls-3{stroke:#2696c9;stroke-miterlimit:10;stroke-width:26px;}</style><clipPath id="clippath"><rect class="cls-2" width="867.9148936" height="43.787234"/></clipPath></defs><g id="_レイヤー_1-2"><g class="cls-1"><path class="cls-3" d="m-.5088027,32.6414704c29.8133297-.0680782,29.831584,7.9256016,59.6449137,7.8575235,29.8150088-.068082,29.7967563-8.0617618,59.611765-8.1298439,29.8138986-.0680795,29.8321529,7.9256003,59.6460516,7.8575209,29.8144584-.0680808,29.7962059-8.0617606,59.6106642-8.1298413,29.8150512-.0680821,29.8333055,7.9255977,59.6483568,7.8575156,29.8166185-.0680857,29.798366-8.0617655,59.6149844-8.1298512,29.8171487-.0680869,29.835403,7.9255929,59.6525517,7.857506,29.8162019-.0680847,29.7979494-8.0617646,59.6141513-8.1298493,29.8174385-.0680876,29.8356929,7.9255923,59.6531314,7.8575047,29.8170765-.0680867,29.798824-8.0617666,59.6159004-8.1298533,29.8159605-.0680842,29.8342148,7.9255956,59.6501753,7.8575114,29.8173368-.0680873,29.7990843-8.0617672,59.6164211-8.1298545,29.8182081-.0680893,29.8364624,7.9255905,59.6546705,7.8575012,29.8195937-.0680925,29.8013412-8.0617723,59.6209349-8.1298648s29.837848,7.9255873,59.6574417,7.8574948"/></g></g></svg>