<?xml version="1.0" encoding="UTF-8"?><svg id="_レイヤー_2" xmlns="http://www.w3.org/2000/svg" xmlns:xlink="http://www.w3.org/1999/xlink" viewBox="0 0 365.5319149 44.4255319"><defs><style>.cls-1{clip-path:url(#clippath-1);}.cls-2{clip-path:url(#clippath);}.cls-3,.cls-4{fill:none;}.cls-4{stroke:#2696c9;stroke-miterlimit:10;stroke-width:26px;}</style><clipPath id="clippath"><rect class="cls-3" width="365.5319149" height="44.4255319"/></clipPath><clipPath id="clippath-1"><rect class="cls-3" x="-30.5802253" y=".6808511" width="443.4685232" height="43.787234"/></clipPath></defs><g id="_レイヤー_1-2"><g class="cls-2"><g class="cls-1"><path class="cls-4" d="m-30.8534008,33.322351c15.2333751-.0680782,15.2690995,7.9255426,30.5024746,7.8574644,15.234233-.068082,15.1985103-8.0617028,30.4327433-8.1297848,15.2336658-.0680795,15.2693902,7.9255413,30.503056,7.8574618,15.2339518-.0680808,15.198229-8.0617015,30.4321808-8.1297823,15.2342547-.0680821,15.2699792,7.9255386,30.5042339,7.8574565,15.2350555-.0680857,15.1993328-8.0617064,30.4343883-8.1297921,15.2319043-.0680716,15.2676287,7.9255491,30.499533,7.8574775,15.2334522-.0680785,15.1977295-8.0616993,30.4311817-8.1297778,15.2338619-.0680804,15.2695863,7.9255404,30.5034482,7.85746,15.2356845-.0680885,15.1999618-8.0617092,30.4356463-8.1297978,15.2359253-.0680896,15.2716498,7.9255312,30.5075751,7.8574416,15.2366286-.0680927,15.2009058-8.0617135,30.4375344-8.1298062,15.2361487-.0680906,15.2718731,7.9255302,30.5080218,7.8574396,15.2382444-.0680999,15.2025216-8.0617207,30.4407661-8.1298206s15.2739689,7.9255208,30.5122133,7.8574209"/></g></g></g></svg>