<?xml version="1.0" encoding="UTF-8"?><svg id="_レイヤー_2" xmlns="http://www.w3.org/2000/svg" viewBox="0 0 415.64 49.81"><defs><style>.cls-1{fill:#d5255a;}</style></defs><g id="_レイヤー_1-2"><g><g id="_グループ_140"><rect class="cls-1" x="81.26" y="3.33" width="9.19" height="3" transform="translate(51.97 83.87) rotate(-70.01)"/><rect class="cls-1" x="94.57" y="11.97" width="8.5" height="3" transform="translate(9.12 57.08) rotate(-33.69)"/><rect class="cls-1" x="88.2" y="6.47" width="10.24" height="3" transform="translate(36.5 82.43) rotate(-57.54)"/></g><g><path class="cls-1" d="m10.73,44.52l-7.52,3.29c-.18.09-.36.13-.53.13-.67,0-1.25-.58-1.25-1.29,0-.13,0-.27.04-.4l4.01-13.49H1.29c-.71,0-1.29-.49-1.29-1.25,0-.71.58-1.29,1.29-1.29h5.92c.76,0,1.29.53,1.29,1.2,0,.13-.04.31-.09.45l-3.69,12.46,4.98-2.18c.18-.04.36-.09.53-.09.76,0,1.25.67,1.25,1.33,0,.49-.27.89-.76,1.11Zm-.13-23.28c-.22.49-.67.8-1.2.8-.13,0-.31-.04-.44-.09l-6.14-2.09c-.53-.18-.85-.71-.85-1.2,0-.71.58-1.29,1.25-1.29.18,0,.31.04.44.09l6.14,2.09c.53.18.85.71.85,1.25,0,.18,0,.31-.04.45Zm28.84,14.42h-6.01l-.53,5.48h3.6c.67,0,1.29.58,1.29,1.25,0,.71-.62,1.29-1.29,1.29h-3.92l-.31,3.61c-.04.62-.58,1.11-1.29,1.11h-5.47c-.67,0-1.34-.58-1.34-1.29,0-.67.67-1.2,1.34-1.2h4.32l.22-2.23h-13.17c-.71,0-1.29-.58-1.29-1.29l1.34-6.72h-4.32c-.67,0-1.25-.62-1.25-1.29,0-.71.58-1.29,1.25-1.29h4.81l1.38-6.99c.04-.62.62-1.07,1.25-1.07h12.95c.71,0,1.29.58,1.29,1.29l-.62,6.77h5.79c.67,0,1.29.58,1.29,1.29,0,.67-.62,1.29-1.29,1.29Zm-3.21-12.6h-17.36l-4.05,3.56c-.22.22-.53.31-.85.31-.71,0-1.29-.58-1.29-1.29,0-.36.13-.76.4-.98l4.05-3.52v-3.6c0-.71.53-1.29,1.34-1.29.67,0,1.25.58,1.25,1.29v2.89h16.51c.67,0,1.29.58,1.29,1.29,0,.76-.62,1.34-1.29,1.34Zm-16.69,12.6l-1.02,5.48h4.23l.89-5.48h-4.09Zm1.56-8.06l-1.02,5.47h3.96l.85-5.47h-3.78Zm5.16,8.06l-.85,5.48h4.85l.53-5.48h-4.54Zm1.25-8.06l-.85,5.47h4.36l.53-5.47h-4.05Z"/><path class="cls-1" d="m58.18,26.49l-3.16,2.54c.04.13.04.22.04.36v18.03c0,.67-.58,1.2-1.29,1.2s-1.29-.53-1.29-1.2v-16.29l-4.58,3.69c-.27.18-.53.27-.85.27-.71,0-1.25-.53-1.25-1.29,0-.36.13-.71.45-.98l10.33-8.32c.22-.18.49-.27.8-.27.36,0,.71.13.98.45.18.27.27.53.27.85,0,.36-.13.71-.45.98Zm-.71-8.1l-8.46,6.85c-.27.18-.53.27-.8.27-.71,0-1.29-.58-1.29-1.29,0-.36.18-.71.49-.98l8.46-6.81c.27-.18.53-.31.85-.31.36,0,.67.18.94.49.18.22.27.49.27.8,0,.36-.13.71-.45.98Zm29.02,11.35h-4.58v17.09c0,.71-.58,1.29-1.29,1.29h-4.98c-.71,0-1.29-.58-1.29-1.29,0-.67.58-1.25,1.29-1.25h3.69v-15.85h-5.52c-.22,0-.4-.04-.58-.13.04.09.04.22.04.36,0,.67-.58,1.29-1.29,1.29h-12.42c-.67,0-1.25-.62-1.25-1.29,0-.71.58-1.29,1.25-1.29h5.3v-3.43h-4.32c-.71,0-1.29-.58-1.29-1.29,0-.67.58-1.29,1.29-1.29h4.32v-3.52c0-.62.58-1.2,1.29-1.2s1.29.58,1.29,1.2v3.52h3.87c.71,0,1.29.62,1.29,1.29,0,.71-.58,1.29-1.29,1.29h-3.87v3.43h4.54c.22,0,.4.04.58.13-.04-.09-.04-.22-.04-.36,0-.67.58-1.29,1.29-1.29h12.69c.71,0,1.29.62,1.29,1.29,0,.71-.58,1.29-1.29,1.29Zm-13.53,13.49l-13.22,2.85c-.76,0-1.34-.53-1.34-1.29,0-.62.45-1.11,1.02-1.25l5.43-1.2v-3.65h-4.32c-.71,0-1.29-.58-1.29-1.29,0-.67.58-1.29,1.29-1.29h4.32v-2.8c0-.67.58-1.2,1.29-1.2s1.29.53,1.29,1.2v2.8h3.87c.71,0,1.29.62,1.29,1.29,0,.71-.58,1.29-1.29,1.29h-3.87v3.07l4.94-1.07c.09-.04.18-.04.31-.04.58,0,1.11.44,1.25,1.02.04.09.04.18.04.31,0,.58-.45,1.11-1.02,1.25Zm12.15-20.88h-9.21c-.71,0-1.29-.62-1.29-1.29,0-.71.58-1.29,1.29-1.29h9.21c.71,0,1.29.58,1.29,1.29,0,.67-.58,1.29-1.29,1.29Z"/><path class="cls-1" d="m129.54,42.47c-.13,0-.27,0-.4-.04l-8.41-3.25-7.7,10.1c-.27.36-.67.53-1.07.53-.67,0-1.25-.53-1.25-1.29,0-.22.09-.49.22-.71l7.3-9.57c-2.94-1.16-5.96-2.23-8.77-2.85-2.54,3.34-6.81,7.75-9.84,7.75-2.23,0-3.65-1.42-3.65-3.65,0-4.27,3.69-7.21,9.04-7.21,1.07,0,2.14.09,3.29.31l6.5-9.79h-11.31c-.71,0-1.29-.62-1.29-1.29,0-.71.58-1.29,1.29-1.29h13.71c.71,0,1.29.58,1.29,1.25,0,.27-.09.49-.22.71l-7.3,10.99c2.94.71,5.96,1.87,8.86,2.98l1.42-1.87v-2.94c0-.71.58-1.29,1.29-1.29s1.29.58,1.29,1.29v3.38c0,.27-.09.53-.27.76l-1.25,1.6,7.57,2.89c.53.22.89.67.89,1.16,0,.8-.62,1.33-1.25,1.33Zm-24.52-7.66c-3.56,0-6.5,1.69-6.5,4.67,0,.8.31,1.07,1.11,1.07,1.2,0,4.14-2.36,6.9-5.65-.53-.04-1.02-.09-1.51-.09Z"/><path class="cls-1" d="m172.32,45.58l-11.44.53c-.89.04-1.69.04-2.45.04-9.17,0-10.68-2.85-10.68-5.88,0-3.34,2.94-6.54,6.72-9.35l-1.65-12.42c0-.76.58-1.34,1.25-1.34s1.2.4,1.29,1.07l1.51,11.08c1.38-.85,9.35-5.3,10.64-5.3.71,0,1.29.62,1.29,1.29,0,.49-.31.98-.76,1.16-7.17,2.94-17.71,8.86-17.71,13.8,0,1.38,1.2,3.29,8.55,3.29.67,0,1.42,0,2.18-.04l11.13-.49c.67-.04,1.29.53,1.29,1.29,0,.67-.49,1.2-1.16,1.25Zm1.2-20.47c-.22,0-.45-.09-.67-.22l-4.76-3.21c-.36-.22-.53-.58-.53-.93,0-.67.53-1.2,1.16-1.2.22,0,.45.09.67.22l4.81,3.2c.31.22.49.58.49.98,0,.71-.53,1.16-1.16,1.16Zm5.03-2.89c-.18,0-.4-.09-.58-.18l-4.76-3.07c-.36-.22-.53-.58-.53-.98,0-.76.58-1.2,1.16-1.2.22,0,.44.09.62.18l4.76,3.07c.36.22.53.67.53,1.07s-.4,1.11-1.2,1.11Z"/><path class="cls-1" d="m218.71,44.92h-13.09c-7.17,0-11.97-1.2-11.97-6.1,0-1.38.8-5.21,2.63-5.21.8,0,1.29.62,1.29,1.29,0,.31-.09.62-.36.89-.62.67-1.02,2.14-1.02,3.03,0,1.47.4,3.52,9.44,3.52h13.09c.67,0,1.29.58,1.29,1.29,0,.67-.62,1.29-1.29,1.29Zm-3.16-20.83l-6.85,6.01c-.22.22-.53.31-.85.31-.62,0-1.29-.49-1.29-1.29,0-.36.18-.71.45-.93l4.27-3.78h-13.58c-.71,0-1.29-.58-1.29-1.29s.58-1.29,1.29-1.29h17c.93,0,1.29.76,1.29,1.29,0,.4-.13.71-.45.98Z"/><path class="cls-1" d="m251.92,46.74h-7.39c-.71,0-1.29-.58-1.29-1.29s.58-1.25,1.29-1.25h7.39c7.75,0,11.57-3.69,11.57-6.63s-2.22-5.03-6.36-5.03c-6.45,0-11.97,2.58-15.98,5.43-.18.13-.36.18-.62.18-.71,0-1.29-.62-1.29-1.29,0-.4.18-.8.45-1.02l17.23-14.38h-12.2c-.71,0-1.29-.58-1.29-1.25,0-.71.58-1.29,1.29-1.29h15.67c.85,0,1.29.67,1.29,1.29,0,.36-.13.76-.45.98l-13.26,10.86c3.07-1.25,6.1-2.05,9.3-2.05,5.3,0,8.77,2.98,8.77,7.57s-4.94,9.17-14.11,9.17Z"/><path class="cls-1" d="m315.39,24.89l-15.84,13.13,8.1,5.92c.36.27.49.67.49,1.02,0,.67-.45,1.29-1.29,1.29-.27,0-.53-.09-.76-.27l-15.4-11.26c-.36-.27-.53-.67-.53-1.07,0-.76.62-1.29,1.29-1.29.27,0,.53.09.76.27l5.16,3.78,13.62-11.26h-25.95c-.71,0-1.29-.58-1.29-1.29,0-.67.58-1.29,1.29-1.29h29.51c.67,0,1.29.53,1.29,1.29,0,.4-.13.76-.45,1.02Z"/><path class="cls-1" d="m340.1,34.1c-.44,0-.85-.18-1.07-.58l-3.43-5.61c-.13-.22-.18-.44-.18-.62,0-.62.44-1.2,1.16-1.2.44,0,.8.22,1.02.58l3.43,5.61c.13.22.18.45.18.62,0,.62-.45,1.2-1.11,1.2Zm-2,13.35c-.09.04-.27.04-.36.04-.62,0-1.2-.49-1.2-1.25,0-.44.36-.93.89-1.11,11.71-3.47,17.31-11.57,17.31-14.2v-4.32c0-.62.53-1.16,1.2-1.16s1.2.53,1.2,1.16v4.32c0,4.27-6.99,12.86-19.05,16.51Zm9.08-14.02c-.49,0-.93-.36-1.11-.85l-1.87-5.74c-.04-.13-.04-.27-.04-.4,0-.67.58-1.2,1.2-1.2.49,0,.93.36,1.11.85l1.87,5.79c.04.13.04.27.04.4,0,.62-.49,1.16-1.2,1.16Z"/><path class="cls-1" d="m397.62,36.06c-3.69,3.87-9.7,8.86-17.76,10.86-.22.04-.31.09-.49.09-.67,0-1.25-.67-1.25-1.34,0-.58.36-1.11.98-1.25,7.43-1.78,13.13-6.45,16.6-10.06,4.18-4.36,6.23-8.37,6.23-9.44v-1.78h-20.56c-.71,0-1.29-.58-1.29-1.29s.58-1.29,1.29-1.29h21.85c.71,0,1.29.58,1.29,1.29v3.07c0,2.09-2.71,6.77-6.9,11.13Zm13.67-12.95c-2.45,0-4.41-2.05-4.41-4.58s1.96-4.58,4.41-4.58,4.36,2.05,4.36,4.58-1.96,4.58-4.36,4.58Zm0-7.12c-1.29,0-2.36,1.16-2.36,2.54s1.11,2.49,2.36,2.49,2.31-1.11,2.31-2.49-1.07-2.54-2.31-2.54Z"/></g></g></g></svg>