<?xml version="1.0" encoding="UTF-8"?><svg id="_レイヤー_2" xmlns="http://www.w3.org/2000/svg" xmlns:xlink="http://www.w3.org/1999/xlink" viewBox="0 0 1567.89 45.47"><defs><style>.cls-1{fill:#fff;}.cls-2{clip-path:url(#clippath-1);}.cls-3{clip-path:url(#clippath);}.cls-4{fill:none;}</style><clipPath id="clippath"><rect class="cls-4" x="783.8" width="784.09" height="45.47"/></clipPath><clipPath id="clippath-1"><rect class="cls-4" width="784.09" height="45.47" transform="translate(784.09 45.47) rotate(180)"/></clipPath></defs><g id="_レイヤー_1-2"><g class="cls-3"><path class="cls-1" d="m1567.89,115.2c-39.39,0-60.92-15.39-76.65-26.63-12.48-8.92-18.75-13.4-35.37-13.4s-22.89,4.48-35.37,13.4c-15.73,11.24-37.26,26.63-76.65,26.63s-60.92-15.39-76.65-26.63c-12.48-8.92-18.74-13.4-35.37-13.4s-22.88,4.48-35.36,13.39c-15.73,11.24-37.26,26.63-76.65,26.63s-60.92-15.39-76.65-26.63c-12.48-8.92-18.74-13.39-35.36-13.39s-22.88,4.48-35.36,13.39c-15.73,11.24-37.26,26.63-76.65,26.63s-60.92-15.39-76.65-26.63c-12.48-8.92-18.74-13.39-35.36-13.39V4.17c39.38,0,60.92,15.39,76.65,26.63,12.48,8.92,18.74,13.4,35.36,13.4s22.88-4.48,35.36-13.39c15.73-11.24,37.26-26.63,76.65-26.63s60.92,15.39,76.65,26.63c12.48,8.92,18.74,13.4,35.36,13.4s22.88-4.48,35.36-13.39c15.73-11.24,37.26-26.63,76.65-26.63s60.92,15.39,76.65,26.63c12.48,8.92,18.74,13.4,35.36,13.4s22.89-4.48,35.37-13.4c15.73-11.24,37.26-26.63,76.65-26.63s60.92,15.39,76.65,26.63c12.48,8.92,18.75,13.4,35.37,13.4v71Z"/></g><g class="cls-2"><path class="cls-1" d="m0,115.2c39.39,0,60.92-15.39,76.65-26.63,12.48-8.92,18.75-13.4,35.37-13.4s22.89,4.48,35.37,13.4c15.73,11.24,37.26,26.63,76.65,26.63s60.92-15.39,76.65-26.63c12.48-8.92,18.74-13.4,35.37-13.4s22.88,4.48,35.36,13.39c15.73,11.24,37.26,26.63,76.65,26.63s60.92-15.39,76.65-26.63c12.48-8.92,18.74-13.39,35.36-13.39s22.88,4.48,35.36,13.39c15.73,11.24,37.26,26.63,76.65,26.63s60.92-15.39,76.65-26.63c12.48-8.92,18.74-13.39,35.36-13.39V4.17c-39.38,0-60.92,15.39-76.65,26.63-12.48,8.92-18.74,13.4-35.36,13.4s-22.88-4.48-35.36-13.39c-15.73-11.24-37.26-26.63-76.65-26.63s-60.92,15.39-76.65,26.63c-12.48,8.92-18.74,13.4-35.36,13.4s-22.88-4.48-35.36-13.39c-15.73-11.24-37.26-26.63-76.65-26.63s-60.92,15.39-76.65,26.63c-12.48,8.92-18.74,13.4-35.36,13.4s-22.89-4.48-35.37-13.4c-15.73-11.24-37.26-26.63-76.65-26.63s-60.92,15.39-76.65,26.63C22.89,39.72,16.62,44.2,0,44.2v71Z"/></g></g></svg>