<?xml version="1.0" encoding="UTF-8"?><svg id="_レイヤー_2" xmlns="http://www.w3.org/2000/svg" viewBox="0 0 394.55 48.06"><defs><style>.cls-1{fill:#d5255a;}</style></defs><g id="_レイヤー_1-2"><g id="_グループ_140"><rect class="cls-1" x="69.07" y="3.33" width="9.19" height="3" transform="translate(43.95 72.41) rotate(-70.01)"/><rect class="cls-1" x="82.38" y="11.97" width="8.5" height="3" transform="translate(7.08 50.32) rotate(-33.69)"/><rect class="cls-1" x="76.01" y="6.47" width="10.24" height="3" transform="translate(30.85 72.15) rotate(-57.54)"/></g><g><path class="cls-1" d="m10.73,43.96l-7.52,3.29c-.18.09-.36.13-.53.13-.67,0-1.25-.58-1.25-1.29,0-.13,0-.27.04-.4l4.01-13.49H1.29c-.71,0-1.29-.49-1.29-1.25,0-.71.58-1.29,1.29-1.29h5.92c.76,0,1.29.53,1.29,1.2,0,.13-.04.31-.09.45l-3.69,12.46,4.98-2.18c.18-.04.36-.09.53-.09.76,0,1.25.67,1.25,1.33,0,.49-.27.89-.76,1.11Zm-.13-23.28c-.22.49-.67.8-1.2.8-.13,0-.31-.04-.44-.09l-6.14-2.09c-.53-.18-.85-.71-.85-1.2,0-.71.58-1.29,1.25-1.29.18,0,.31.04.44.09l6.14,2.09c.53.18.85.71.85,1.25,0,.18,0,.31-.04.45Zm28.84,14.42h-6.01l-.53,5.48h3.6c.67,0,1.29.58,1.29,1.25,0,.71-.62,1.29-1.29,1.29h-3.92l-.31,3.61c-.04.62-.58,1.11-1.29,1.11h-5.47c-.67,0-1.34-.58-1.34-1.29,0-.67.67-1.2,1.34-1.2h4.32l.22-2.23h-13.17c-.71,0-1.29-.58-1.29-1.29l1.34-6.72h-4.32c-.67,0-1.25-.62-1.25-1.29,0-.71.58-1.29,1.25-1.29h4.81l1.38-6.99c.04-.62.62-1.07,1.25-1.07h12.95c.71,0,1.29.58,1.29,1.29l-.62,6.77h5.79c.67,0,1.29.58,1.29,1.29,0,.67-.62,1.29-1.29,1.29Zm-3.21-12.6h-17.36l-4.05,3.56c-.22.22-.53.31-.85.31-.71,0-1.29-.58-1.29-1.29,0-.36.13-.76.4-.98l4.05-3.52v-3.6c0-.71.53-1.29,1.34-1.29.67,0,1.25.58,1.25,1.29v2.89h16.51c.67,0,1.29.58,1.29,1.29,0,.76-.62,1.34-1.29,1.34Zm-16.69,12.6l-1.02,5.48h4.23l.89-5.48h-4.09Zm1.56-8.06l-1.02,5.47h3.96l.85-5.47h-3.78Zm5.16,8.06l-.85,5.48h4.85l.53-5.48h-4.54Zm1.25-8.06l-.85,5.47h4.36l.53-5.47h-4.05Z"/><path class="cls-1" d="m51.5,25.93l-3.16,2.54c.04.13.04.22.04.36v18.03c0,.67-.58,1.2-1.29,1.2s-1.29-.53-1.29-1.2v-16.29l-4.58,3.69c-.27.18-.53.27-.85.27-.71,0-1.25-.53-1.25-1.29,0-.36.13-.71.45-.98l10.33-8.32c.22-.18.49-.27.8-.27.36,0,.71.13.98.45.18.27.27.53.27.85,0,.36-.13.71-.45.98Zm-.71-8.1l-8.46,6.85c-.27.18-.53.27-.8.27-.71,0-1.29-.58-1.29-1.29,0-.36.18-.71.49-.98l8.46-6.81c.27-.18.53-.31.85-.31.36,0,.67.18.94.49.18.22.27.49.27.8,0,.36-.13.71-.44.98Zm29.02,11.35h-4.58v17.09c0,.71-.58,1.29-1.29,1.29h-4.98c-.71,0-1.29-.58-1.29-1.29,0-.67.58-1.25,1.29-1.25h3.69v-15.85h-5.52c-.22,0-.4-.04-.58-.13.04.09.04.22.04.36,0,.67-.58,1.29-1.29,1.29h-12.42c-.67,0-1.25-.62-1.25-1.29,0-.71.58-1.29,1.25-1.29h5.3v-3.43h-4.32c-.71,0-1.29-.58-1.29-1.29,0-.67.58-1.29,1.29-1.29h4.32v-3.52c0-.62.58-1.2,1.29-1.2s1.29.58,1.29,1.2v3.52h3.87c.71,0,1.29.62,1.29,1.29,0,.71-.58,1.29-1.29,1.29h-3.87v3.43h4.54c.22,0,.4.04.58.13-.04-.09-.04-.22-.04-.36,0-.67.58-1.29,1.29-1.29h12.69c.71,0,1.29.62,1.29,1.29,0,.71-.58,1.29-1.29,1.29Zm-13.53,13.49l-13.22,2.85c-.76,0-1.34-.53-1.34-1.29,0-.62.45-1.11,1.02-1.25l5.43-1.2v-3.65h-4.32c-.71,0-1.29-.58-1.29-1.29,0-.67.58-1.29,1.29-1.29h4.32v-2.8c0-.67.58-1.2,1.29-1.2s1.29.53,1.29,1.2v2.8h3.87c.71,0,1.29.62,1.29,1.29,0,.71-.58,1.29-1.29,1.29h-3.87v3.07l4.94-1.07c.09-.04.18-.04.31-.04.58,0,1.11.44,1.25,1.02.04.09.04.18.04.31,0,.58-.45,1.11-1.02,1.25Zm12.15-20.88h-9.21c-.71,0-1.29-.62-1.29-1.29,0-.71.58-1.29,1.29-1.29h9.21c.71,0,1.29.58,1.29,1.29,0,.67-.58,1.29-1.29,1.29Z"/><path class="cls-1" d="m105.46,35.5c-3.69,3.87-9.7,8.86-17.76,10.86-.18.04-.31.09-.49.09-.67,0-1.25-.67-1.25-1.34,0-.58.4-1.11,1.02-1.25,7.39-1.78,13.09-6.45,16.56-10.06,4.18-4.36,6.23-8.37,6.23-9.44v-1.78h-20.56c-.67,0-1.25-.58-1.25-1.29s.58-1.29,1.25-1.29h21.9c.67,0,1.25.58,1.25,1.29v3.07c0,2.09-2.71,6.77-6.9,11.13Z"/><path class="cls-1" d="m128.7,46.54h-.22c-.71,0-1.29-.62-1.29-1.29,0-.62.44-1.16,1.02-1.25,15.49-2.85,21.01-12.64,21.01-15.09v-1.16h-21.01c-.71,0-1.29-.58-1.29-1.29s.58-1.29,1.29-1.29h22.3c.71,0,1.29.58,1.29,1.29v2.45c0,4.05-6.72,14.6-23.1,17.63Zm20.39-26.17h-18.07c-.67,0-1.29-.58-1.29-1.29,0-.67.62-1.29,1.29-1.29h18.07c.71,0,1.29.62,1.29,1.29,0,.71-.58,1.29-1.29,1.29Z"/><path class="cls-1" d="m173.08,33.32c-.13,0-.27,0-.4-.04l-6.77-2.31c-.49-.18-.85-.67-.85-1.2,0-.76.62-1.29,1.33-1.29.13,0,.27,0,.4.04l6.72,2.31c.53.18.85.67.85,1.25,0,.76-.62,1.25-1.29,1.25Zm22.88-5.88c-6.19,9.21-20.16,16.87-24.12,16.87h-4.76c-.71,0-1.29-.62-1.29-1.29,0-.71.58-1.29,1.29-1.29h4.76c2.98,0,16.25-7.12,21.99-15.71.27-.36.67-.58,1.07-.58.76,0,1.29.62,1.29,1.29,0,.22-.09.49-.22.71Zm-20.38-.71c-.22,0-.45-.04-.67-.18l-6.59-3.83c-.4-.22-.62-.67-.62-1.11,0-.8.58-1.29,1.25-1.29.22,0,.45.04.67.18l6.63,3.78c.4.22.62.71.62,1.16,0,.76-.62,1.29-1.29,1.29Z"/><path class="cls-1" d="m236.47,29.98h-14.96v3.03c0,4.58-3.52,10.68-11.35,13.71-.13.04-.27.09-.44.09-.62,0-1.25-.53-1.25-1.25,0-.53.31-.98.89-1.2,6.54-2.58,9.61-7.66,9.61-11.35v-3.03h-14.55c-.67,0-1.29-.58-1.29-1.25,0-.71.62-1.29,1.29-1.29h32.05c.67,0,1.29.58,1.29,1.29,0,.67-.62,1.25-1.29,1.25Zm-7.7-8.72h-17.98c-.71,0-1.29-.58-1.29-1.25,0-.71.58-1.29,1.29-1.29h17.98c.71,0,1.29.58,1.29,1.29,0,.67-.58,1.25-1.29,1.25Z"/><path class="cls-1" d="m263,31.54l-.27.13v14.64c0,.67-.53,1.2-1.2,1.2-.62,0-1.2-.53-1.2-1.2v-13.49c-3.25,1.38-7.61,2.8-12.6,3.43h-.18c-.58,0-1.16-.44-1.16-1.2,0-.62.44-1.07,1.02-1.16,11.57-1.47,19.67-7.25,20.03-8.86v-1.25c0-.67.49-1.2,1.16-1.2s1.2.53,1.2,1.2v1.29c0,2.14-3.43,4.76-6.81,6.45Z"/><path class="cls-1" d="m313.04,45.03l-11.39.53c-.89.04-1.69.04-2.45.04-9.17,0-10.68-2.85-10.68-5.88,0-3.21,2.72-6.37,6.28-9.08l-1.74-12.73c0-.71.53-1.29,1.25-1.29.67,0,1.2.4,1.29,1.07l1.56,11.31c4.01-2.63,8.55-4.72,11.57-5.88.18-.04.31-.09.49-.09.67,0,1.25.58,1.25,1.29,0,.53-.31.93-.8,1.16-6.9,2.76-18.61,9.08-18.61,14.24,0,1.38,1.2,3.29,8.55,3.29.67,0,1.42,0,2.18-.04l11.13-.49c.67-.04,1.29.49,1.29,1.29,0,.67-.49,1.2-1.16,1.25Z"/><path class="cls-1" d="m332.76,41.25l-2.85,3.56c-.22.31-.62.49-1.02.49-.31,0-.67-.13-.89-.36-2.31-2.27-3.12-6.1-3.12-18.16v-7.39c0-.67.58-1.25,1.29-1.25.67,0,1.29.58,1.29,1.25v7.39c0,9.17.22,13.31,1.42,15.18l1.96-2.27c.22-.31.58-.44.93-.44.8,0,1.25.58,1.25,1.2,0,.27-.09.58-.27.8Zm25.46,3.16c-.18,0-.4-.04-.58-.13-3.69-1.74-6.5-3.03-8.77-3.92-.49,2.67-2.67,5.07-6.81,5.07-3.38,0-6.01-2.05-6.01-4.72,0-2.85,2.31-4.58,6.1-4.58,1.25,0,2.58.18,4.27.67v-9.88h-9.3c-.71,0-1.29-.58-1.29-1.29s.58-1.29,1.29-1.29h9.3v-5.61c0-.67.62-1.29,1.29-1.29.71,0,1.29.62,1.29,1.29v5.61h6.59c.71,0,1.29.58,1.29,1.29s-.58,1.29-1.29,1.29h-6.59v10.77c2.45.89,5.56,2.27,9.7,4.27.49.18.76.62.76,1.11,0,.71-.58,1.34-1.25,1.34Zm-16.07-5.74c-1.47,0-3.52.31-3.52,2.05,0,1.11,1.47,2.14,3.43,2.14,3.61,0,4.23-2.27,4.36-3.38-1.78-.58-3.12-.8-4.27-.8Z"/><path class="cls-1" d="m394.06,27.14l-10.59,8.59v1.78c0,.76-.62,1.33-1.33,1.33-.76,0-1.38-.58-1.38-1.33v-2.45c0-.4.18-.8.49-1.07l10.59-8.55v-3.34l-3.92-2.49h-5.12l-7.3,5.52c-.22.18-.53.27-.8.27-.71,0-1.38-.49-1.38-1.33,0-.4.22-.8.53-1.07l7.7-5.79c.22-.22.53-.31.8-.31h5.92c.27,0,.49.09.71.22l4.94,3.07c.4.22.62.67.62,1.16v4.76c0,.4-.13.76-.49,1.02Zm-11.79,18.38c-1.07,0-1.91-.8-1.91-1.83s.85-1.82,1.91-1.82,1.82.8,1.82,1.82-.8,1.83-1.82,1.83Z"/></g></g></svg>