<?xml version="1.0" encoding="UTF-8"?><svg id="_レイヤー_2" xmlns="http://www.w3.org/2000/svg" xmlns:xlink="http://www.w3.org/1999/xlink" viewBox="0 0 1147.91 1419.57"><defs><style>.cls-1{fill:#ece6e1;}.cls-2{clip-path:url(#clippath);}.cls-3{fill:none;}</style><clipPath id="clippath"><rect class="cls-3" width="1147.91" height="1419.57"/></clipPath></defs><g id="_レイヤー_1-2"><g class="cls-2"><path class="cls-1" d="m710.41-163.75c2.19.18,12.31,2,21.98,13.53,9.66,11.53,14.98,18.34,15.14,19.09s3.54,6.22,9.02,26.84c5.47,20.62,38.97,20.54,38.97,20.54,0,0,36.06-11.29,74.74,26.62,38.68,37.91,33.14,65.62,33.14,65.62,0,0-7.64,24.09-9.25,26.52s-7.53,21.89,19.46,40.72c26.99,18.83,90.65,17.7,140.7-12.93,0,0,9.37-7.47,12.35-15.06,2.98-7.59,3.61-34.11,43.53-21,0,0,5.83.63-2.06,10.09,0,0-6.05,55.31-3.64,89.1,0,0-4.12,20.18-12.39,43.45-8.27,23.28,7.07,34.68,7.07,34.68,0,0,11.11,7.11,60.23,24.14,0,0,8.31,1.84,25.29,21.32,16.98,19.48,92.9,82.97,137.26,95.97,44.36,13,73.86,10.71,86.89,36.93,13.03,26.22-26.88,182.84-65.6,273.62-38.72,90.78-36.6,65.43-61.84,166.73,0,0-7.24,42.94,6.43,84.01,0,0,8.15,37.93-2.04,80.76-10.18,42.82-82.87,100.05-82.87,100.05,0,0-55.48,61.47-76.32,68.11-20.84,6.63-66.01-21.24-75.17-18.75-9.17,2.49-19.76-4.81-70.1,42.2-50.34,47-160.59,50.62-160.59,50.62,0,0-15.36-7.22-68.24,70.49,0,0-4.16,16.85-9.83,66.01,0,0-4.46,10.29-47.18-8.09-42.72-18.38-40.36-37.62-102.34-42.11-61.99-4.49-91.41-42.9-130.03-83.35,0,0-27.4-30.2-97.05-35.14-69.65-4.94-114.78-38.39-140.7-192.26,0,0-16.67-94.87-23.17-102.07,0,0-5.89-20.17,7.72-30.81,13.62-10.64,34.03-16.5,47.32-28.41,0,0,20.57-15.78,30.23-34.29,0,0,8.09-8.36,28.28-7.03,20.19,1.33,35.06-18.18,41.59-37.9,6.52-19.72,25.75-79.4,36.38-87.7,10.62-8.3,54.1-45.56,58.36-52.17,4.26-6.62,1.74-52.23,24.31-67.68,22.58-15.45-11.19-94.69-11.19-94.69,0,0-38.35-91.38-37.39-96.51.96-5.13-13.44,29.21-40.72-10.58-27.29-39.79-22.73-117.04-18.66-126.06,4.06-9.02,8.14-47.59,116.02-78.66,107.88-31.07,118.1-55.43,131.07-112.93,12.97-57.5,8.57-129.94,48.29-180.7,0,0,22.5-22.84,46.64-20.87Z"/></g><rect class="cls-1" x="859.3" width="288.61" height="242.48"/></g></svg>