<?xml version="1.0" encoding="UTF-8"?><svg id="_レイヤー_2" xmlns="http://www.w3.org/2000/svg" viewBox="0 0 162.9523944 64.548382"><defs><style>.cls-1,.cls-2{fill:#fff;}.cls-3{fill:#c494ea;}.cls-4{fill:#93f9f1;}.cls-5{letter-spacing:-.1859532em;}.cls-6{letter-spacing:-.0149879em;}.cls-7{fill:#ffe631;}.cls-2{font-family:VDL-YotaG-Medium-90ms-RKSJ-H, VDL-YotaG;font-size:15.0512505px;font-weight:500;}.cls-8{letter-spacing:-.2189784em;}.cls-9{letter-spacing:-.2699111em;}.cls-10{letter-spacing:-.2079484em;}.cls-11{letter-spacing:-.1399515em;}.cls-12{letter-spacing:-.1219791em;}.cls-13{fill:#e3ff3e;}.cls-14{fill:#76b5ce;}.cls-15{fill:#f2b3da;}.cls-16{fill:#5daf51;}.cls-17{fill:#ffff3e;}.cls-18{fill:#ff8f3b;}</style></defs><g id="_レイヤー_1-2"><g><ellipse class="cls-16" cx="81.4761972" cy="43.386681" rx="81.4761972" ry="21.161701"/><g><path class="cls-18" d="m45.178615,19.4210526c.0315789-.2052632,2.6526316-3.1736842,3.4736842-2.6052632s2.4947368,1.2315789,1.7052632,2.6052632-3.3789474,2.5736842-3.3789474,2.5736842l-1.8-2.5736842Z"/><path class="cls-18" d="m46.618849,21.5614667c.2000507-.0557665,3.9845404,1.1100287,3.804742,2.0923232s-.0947481,2.7805613-1.6716689,2.6269453-3.7369464-2.0190016-3.7369464-2.0190016l1.6038733-2.7002668Z"/><path class="cls-18" d="m45.1708253,23.6267353c.0841979.1898444-.5202501,4.1034212-1.5182366,4.068026s-2.7648921.3096294-2.8416645-1.2728949,1.4555258-3.9903108,1.4555258-3.9903108l2.9043753,1.1951797Z"/><path class="cls-18" d="m42.8363884,23.1748569c-.1562948.1367557-4.0729023.721244-4.3353413-.2422682s-1.116395-2.5483644.3720134-3.0914276,4.242514.2054526,4.242514.2054526l-.279186,3.1282432Z"/><path class="cls-18" d="m42.6317481,21.0118443c-.1911501-.0811901-2.4220863-3.3529425-1.6688561-4.0085904s1.8083981-2.1142836,2.945157-1.0106278c1.136759,1.1036558,1.6615981,3.9089932,1.6615981,3.9089932l-2.937899,1.1102251Z"/><circle class="cls-7" cx="44.5549308" cy="21.5595403" r="2.3447368"/></g><g><path class="cls-17" d="m59.3138986,16.9877914c.0315789-.2052632,2.6526316-3.1736842,3.4736842-2.6052632s2.4947368,1.2315789,1.7052632,2.6052632-3.3789474,2.5736842-3.3789474,2.5736842l-1.8-2.5736842Z"/><path class="cls-17" d="m60.7541327,19.1282055c.2000507-.0557665,3.9845404,1.1100287,3.804742,2.0923232s-.0947481,2.7805613-1.6716689,2.6269453-3.7369464-2.0190016-3.7369464-2.0190016l1.6038733-2.7002668Z"/><path class="cls-17" d="m59.306109,21.1934741c.0841979.1898444-.5202501,4.1034212-1.5182366,4.068026s-2.7648921.3096294-2.8416645-1.2728949,1.4555258-3.9903108,1.4555258-3.9903108l2.9043753,1.1951797Z"/><path class="cls-17" d="m56.9716721,20.7415956c-.1562948.1367557-4.0729023.721244-4.3353413-.2422682s-1.116395-2.5483644.3720134-3.0914276,4.242514.2054526,4.242514.2054526l-.279186,3.1282432Z"/><path class="cls-17" d="m56.7670318,18.578583c-.1911501-.0811901-2.4220863-3.3529425-1.6688561-4.0085904s1.8083981-2.1142836,2.945157-1.0106278,1.6615981,3.9089932,1.6615981,3.9089932l-2.937899,1.1102251Z"/><circle class="cls-7" cx="58.6902144" cy="19.126279" r="2.3447368"/></g><g><path class="cls-14" d="m45.3177017,29.0480563c.0315789-.2052632,2.6526316-3.1736842,3.4736842-2.6052632s2.4947368,1.2315789,1.7052632,2.6052632-3.3789474,2.5736842-3.3789474,2.5736842l-1.8-2.5736842Z"/><path class="cls-14" d="m46.7579357,31.1884704c.2000507-.0557665,3.9845404,1.1100287,3.804742,2.0923232s-.0947481,2.7805613-1.6716689,2.6269453-3.7369464-2.0190016-3.7369464-2.0190016l1.6038733-2.7002668Z"/><path class="cls-14" d="m45.309912,33.253739c.0841979.1898444-.5202501,4.1034212-1.5182366,4.068026s-2.7648921.3096294-2.8416645-1.2728949,1.4555258-3.9903108,1.4555258-3.9903108l2.9043753,1.1951797Z"/><path class="cls-14" d="m42.9754751,32.8018606c-.1562948.1367557-4.0729023.721244-4.3353413-.2422682s-1.116395-2.5483644.3720134-3.0914276,4.242514.2054526,4.242514.2054526l-.279186,3.1282432Z"/><path class="cls-14" d="m42.7708348,30.638848c-.1911501-.0811901-2.4220863-3.3529425-1.6688561-4.0085904s1.8083981-2.1142836,2.945157-1.0106278,1.6615981,3.9089932,1.6615981,3.9089932l-2.937899,1.1102251Z"/><circle class="cls-7" cx="44.6940175" cy="31.186544" r="2.3447368"/></g><g><path class="cls-18" d="m60.5921915,35.1038626c.0315789-.2052632,2.6526316-3.1736842,3.4736842-2.6052632s2.4947368,1.2315789,1.7052632,2.6052632-3.3789474,2.5736842-3.3789474,2.5736842l-1.8-2.5736842Z"/><path class="cls-18" d="m62.0324256,37.2442767c.2000507-.0557665,3.9845404,1.1100287,3.804742,2.0923232s-.0947481,2.7805613-1.6716689,2.6269453-3.7369464-2.0190016-3.7369464-2.0190016l1.6038733-2.7002668Z"/><path class="cls-18" d="m60.5844018,39.3095453c.0841979.1898444-.5202501,4.1034212-1.5182366,4.068026s-2.7648921.3096294-2.8416645-1.2728949,1.4555258-3.9903108,1.4555258-3.9903108l2.9043753,1.1951797Z"/><path class="cls-18" d="m58.2499649,38.8576669c-.1562948.1367557-4.0729023.721244-4.3353413-.2422682s-1.116395-2.5483644.3720134-3.0914276,4.242514.2054526,4.242514.2054526l-.279186,3.1282432Z"/><path class="cls-18" d="m58.0453246,36.6946543c-.1911501-.0811901-2.4220863-3.3529425-1.6688561-4.0085904s1.8083981-2.1142836,2.945157-1.0106278,1.6615981,3.9089932,1.6615981,3.9089932l-2.937899,1.1102251Z"/><circle class="cls-7" cx="59.9685073" cy="37.2423503" r="2.3447368"/></g><g><path class="cls-18" d="m56.0576029,27.7096445c.0221338-.1438696,1.8592379-2.2244453,2.4347162-1.8260372s1.7485689.8632176,1.1952243,1.8260372-2.3683149,1.8039034-2.3683149,1.8039034l-1.2616257-1.8039034Z"/><path class="cls-18" d="m57.0670675,29.2098675c.1402162-.0390869,2.792777.7780226,2.6667557,1.4665159s-.0664093,1.9489042-1.171678,1.8412343-2.6192375-1.4151246-2.6192375-1.4151246l1.1241598-1.8926256Z"/><path class="cls-18" d="m56.0521431,30.6574208c.0590146.1330626-.3646449,2.8761009-1.0641368,2.8512923s-1.9379216.2170202-1.9917316-.892176,1.0201826-2.7968215,1.0201826-2.7968215l2.0356858.8377052Z"/><path class="cls-18" d="m54.4159289,30.3406978c-.1095475.0958525-2.8547101.5055222-3.0386544-.1698065s-.7824848-1.7861566.2607453-2.1667914,2.9735915.1440023,2.9735915.1440023l-.1956824,2.1925956Z"/><path class="cls-18" d="m54.2724958,28.8246354c-.1339777-.0569064-1.697648-2.350088-1.1697065-2.8096337s1.2675119-1.481908,2.0642699-.7083522,1.1646194,2.7398257,1.1646194,2.7398257l-2.0591827.7781603Z"/><circle class="cls-7" cx="55.6204606" cy="29.2085173" r="1.6434335"/></g><g><path class="cls-18" d="m69.0039765,18.4373746c.0221338-.1438696,1.8592379-2.2244453,2.4347162-1.8260372s1.7485689.8632176,1.1952243,1.8260372-2.3683149,1.8039034-2.3683149,1.8039034l-1.2616257-1.8039034Z"/><path class="cls-18" d="m70.0134411,19.9375976c.1402162-.0390869,2.792777.7780226,2.6667557,1.4665159s-.0664093,1.9489042-1.171678,1.8412343-2.6192375-1.4151246-2.6192375-1.4151246l1.1241598-1.8926256Z"/><path class="cls-18" d="m68.9985167,21.3851509c.0590146.1330626-.3646449,2.8761009-1.0641368,2.8512923s-1.9379216.2170202-1.9917316-.892176,1.0201826-2.7968215,1.0201826-2.7968215l2.0356858.8377052Z"/><path class="cls-18" d="m67.3623025,21.0684279c-.1095475.0958525-2.8547101.5055222-3.0386544-.1698065s-.7824848-1.7861566.2607453-2.1667914,2.9735915.1440023,2.9735915.1440023l-.1956824,2.1925956Z"/><path class="cls-18" d="m67.2188694,19.5523655c-.1339777-.0569064-1.697648-2.350088-1.1697065-2.8096337s1.2675119-1.481908,2.0642699-.7083522,1.1646194,2.7398257,1.1646194,2.7398257l-2.0591827.7781603Z"/><circle class="cls-7" cx="68.5668343" cy="19.9362474" r="1.6434335"/></g><g><path class="cls-3" d="m80.5810221,25.9053077c.0269772-.1753519,2.2660855-2.7112094,2.9674929-2.2256197s2.1311994,1.0521111,1.4567692,2.2256197c-.6744302,1.1735085-2.8865612,2.1986424-2.8865612,2.1986424l-1.5377009-2.1986424Z"/><path class="cls-3" d="m81.8113827,27.7338169c.170899-.0476401,3.4039062.9482734,3.2503084,1.7874262s-.0809413,2.3753731-1.4280704,2.2441422-3.192392-1.7247892-3.192392-1.7247892l1.370154-2.3067792Z"/><path class="cls-3" d="m80.5743675,29.4981309c.0719284.16218-.4444383,3.5054635-1.2969965,3.4752262s-2.3619872.2645096-2.4275722-1.0874064,1.243424-3.4088357,1.243424-3.4088357l2.4811447,1.021016Z"/><path class="cls-3" d="m78.5801088,29.112101c-.1335193.1168274-3.4793918.6161431-3.7035878-.2069644s-.9537119-2.1770122.3178029-2.6409394,3.6242874.1755136,3.6242874.1755136l-.2385026,2.6723901Z"/><path class="cls-3" d="m78.4052891,27.2642864c-.1632954-.0693589-2.0691357-2.8643459-1.4256675-3.4244516s1.5448751-1.8061865,2.5159836-.8633574c.9711085.9428291,1.4194671,3.3393678,1.4194671,3.3393678l-2.5097832.9484412Z"/><circle class="cls-7" cx="80.0482222" cy="27.7321712" r="2.0030577"/></g><g><path class="cls-13" d="m78.9324252,12.0833206c.0315789-.2052632,2.6526316-3.1736842,3.4736842-2.6052632s2.4947368,1.2315789,1.7052632,2.6052632-3.3789474,2.5736842-3.3789474,2.5736842l-1.8-2.5736842Z"/><path class="cls-13" d="m80.3726593,14.2237347c.2000507-.0557665,3.9845404,1.1100287,3.804742,2.0923232s-.0947481,2.7805613-1.6716689,2.6269453-3.7369464-2.0190016-3.7369464-2.0190016l1.6038733-2.7002668Z"/><path class="cls-13" d="m78.9246356,16.2890033c.0841979.1898444-.5202501,4.1034212-1.5182366,4.068026s-2.7648921.3096294-2.8416645-1.2728949,1.4555258-3.9903108,1.4555258-3.9903108l2.9043753,1.1951797Z"/><path class="cls-13" d="m76.5901987,15.8371249c-.1562948.1367557-4.0729023.721244-4.3353413-.2422682s-1.116395-2.5483644.3720134-3.0914276,4.242514.2054526,4.242514.2054526l-.279186,3.1282432Z"/><path class="cls-13" d="m76.3855584,13.6741123c-.1911501-.0811901-2.4220863-3.3529425-1.6688561-4.0085904s1.8083981-2.1142836,2.945157-1.0106278c1.136759,1.1036558,1.6615981,3.9089932,1.6615981,3.9089932l-2.937899,1.1102251Z"/><circle class="cls-7" cx="78.308741" cy="14.2218083" r="2.3447368"/></g><g><path class="cls-18" d="m91.7906795,34.4618546c.0221338-.1438696,1.8592379-2.2244453,2.4347162-1.8260372s1.7485689.8632176,1.1952243,1.8260372-2.3683149,1.8039034-2.3683149,1.8039034l-1.2616257-1.8039034Z"/><path class="cls-18" d="m92.8001441,35.9620776c.1402162-.0390869,2.792777.7780226,2.6667557,1.4665159s-.0664093,1.9489042-1.171678,1.8412343-2.6192375-1.4151246-2.6192375-1.4151246l1.1241598-1.8926256Z"/><path class="cls-18" d="m91.7852196,37.4096309c.0590146.1330626-.3646449,2.8761009-1.0641368,2.8512923s-1.9379216.2170202-1.9917316-.892176,1.0201826-2.7968215,1.0201826-2.7968215l2.0356858.8377052Z"/><path class="cls-18" d="m90.1490054,37.0929079c-.1095475.0958525-2.8547101.5055222-3.0386544-.1698065s-.7824848-1.7861566.2607453-2.1667914,2.9735915.1440023,2.9735915.1440023l-.1956824,2.1925956Z"/><path class="cls-18" d="m90.0055724,35.5768455c-.1339777-.0569064-1.697648-2.350088-1.1697065-2.8096337s1.2675119-1.481908,2.0642699-.7083522,1.1646194,2.7398257,1.1646194,2.7398257l-2.0591827.7781603Z"/><circle class="cls-7" cx="91.3535372" cy="35.9607274" r="1.6434335"/></g><g><path class="cls-15" d="m93.1943719,11.6483169c.0402048-.261331,3.3772002-4.0405788,4.4225241-3.316893s3.1761764,1.5679858,2.1710573,3.316893-4.3019098,3.2766883-4.3019098,3.2766883l-2.2916716-3.2766883Z"/><path class="cls-15" d="m95.0280071,14.3733869c.2546947-.0709992,5.072921,1.413234,4.8440106,2.6638431-.2289104,1.2506091-.1206287,3.5400741-2.1282867,3.3444977s-4.7576965-2.5704937-4.7576965-2.5704937l2.0419726-3.4378471Z"/><path class="cls-15" d="m93.1844545,17.0027854c.1071966.2417006-.6623568,5.2242743-1.9329442,5.1792109s-3.5201248.3942049-3.6178676-1.6205872,1.8531039-5.0802677,1.8531039-5.0802677l3.697708,1.521644Z"/><path class="cls-15" d="m90.2123641,16.427476c-.1989869.1741106-5.185419.9182524-5.5195435-.3084439s-1.4213392-3.2444523.4736291-3.9358537,5.4013604.2615721,5.4013604.2615721l-.355446,3.9827256Z"/><path class="cls-15" d="m89.9518261,13.6736347c-.2433629-.1033672-3.0836813-4.2688017-2.1247056-5.1035404s2.3023636-2.691802,3.7496292-1.2866817,2.1154651,4.976738,2.1154651,4.976738l-3.7403887,1.413484Z"/><circle class="cls-7" cx="92.4003278" cy="14.3709343" r="2.9852037"/></g><g><path class="cls-18" d="m102.8183018,29.1679708c.0283628-.1843585,2.3824789-2.8504658,3.1199128-2.3399346s2.2406647,1.1061509,1.5315936,2.3399346c-.7090711,1.2337837-3.0348243,2.3115718-3.0348243,2.3115718l-1.6166821-2.3115718Z"/><path class="cls-18" d="m104.1118577,31.0903981c.1796769-.0500871,3.5787417.9969797,3.4172546,1.8792341s-.0850987,2.4973799-1.5014207,2.3594086-3.3563635-1.8133799-3.3563635-1.8133799l1.4405295-2.4252628Z"/><path class="cls-18" d="m102.8113055,32.945333c.0756229.1705101-.4672661,3.6855154-1.3636144,3.6537249s-2.4833064.2780957-2.5522601-1.1432591,1.3072903-3.5839245,1.3072903-3.5839245l2.6085842,1.0734586Z"/><path class="cls-18" d="m100.7146153,32.5394753c-.1403772.1228281-3.6581046.6477901-3.8938159-.2175948s-1.0026976-2.2888306.3341263-2.7765865,3.8104425.1845286,3.8104425.1845286l-.2507528,2.8096527Z"/><path class="cls-18" d="m100.5308162,30.596751c-.1716828-.0729214-2.1754131-3.0114679-1.4988944-3.6003425s1.6242249-1.898958,2.6452126-.9077022c1.0209877.9912558,1.4923755,3.5108885,1.4923755,3.5108885l-2.6386938.9971561Z"/><circle class="cls-7" cx="102.2581357" cy="31.0886679" r="2.1059412"/></g><g><path class="cls-18" d="m107.0396652,19.0521515c.0315789-.2052632,2.6526316-3.1736842,3.4736842-2.6052632s2.4947368,1.2315789,1.7052632,2.6052632-3.3789474,2.5736842-3.3789474,2.5736842l-1.8-2.5736842Z"/><path class="cls-18" d="m108.4798992,21.1925656c.2000507-.0557665,3.9845404,1.1100287,3.804742,2.0923232-.1797984.9822945-.0947481,2.7805613-1.6716689,2.6269453s-3.7369464-2.0190016-3.7369464-2.0190016l1.6038733-2.7002668Z"/><path class="cls-18" d="m107.0318755,23.2578342c.0841979.1898444-.5202501,4.1034212-1.5182366,4.068026s-2.7648921.3096294-2.8416645-1.2728949,1.4555258-3.9903108,1.4555258-3.9903108l2.9043753,1.1951797Z"/><path class="cls-18" d="m104.6974386,22.8059557c-.1562948.1367557-4.0729023.721244-4.3353413-.2422682s-1.116395-2.5483644.3720134-3.0914276,4.242514.2054526,4.242514.2054526l-.279186,3.1282432Z"/><path class="cls-18" d="m104.4927983,20.6429432c-.1911501-.0811901-2.4220863-3.3529425-1.6688561-4.0085904s1.8083981-2.1142836,2.945157-1.0106278,1.6615981,3.9089932,1.6615981,3.9089932l-2.937899,1.1102251Z"/><circle class="cls-7" cx="106.415981" cy="21.1906392" r="2.3447368"/></g><g><path class="cls-4" d="m115.1679532,30.212362c.0221338-.1438696,1.8592379-2.2244453,2.4347162-1.8260372s1.7485689.8632176,1.1952243,1.8260372c-.5533446.9628196-2.3683149,1.8039034-2.3683149,1.8039034l-1.2616257-1.8039034Z"/><path class="cls-4" d="m116.1774178,31.712585c.1402162-.0390869,2.792777.7780226,2.6667557,1.4665159s-.0664093,1.9489042-1.171678,1.8412343-2.6192375-1.4151246-2.6192375-1.4151246l1.1241598-1.8926256Z"/><path class="cls-4" d="m115.1624934,33.1601383c.0590146.1330626-.3646449,2.8761009-1.0641368,2.8512923s-1.9379216.2170202-1.9917316-.892176,1.0201826-2.7968215,1.0201826-2.7968215l2.0356858.8377052Z"/><path class="cls-4" d="m113.5262792,32.8434153c-.1095475.0958525-2.8547101.5055222-3.0386544-.1698065s-.7824848-1.7861566.2607453-2.1667914,2.9735915.1440023,2.9735915.1440023l-.1956824,2.1925956Z"/><path class="cls-4" d="m113.3828462,31.3273529c-.1339777-.0569064-1.697648-2.350088-1.1697065-2.8096337s1.2675119-1.481908,2.0642699-.7083522,1.1646194,2.7398257,1.1646194,2.7398257l-2.0591827.7781603Z"/><circle class="cls-7" cx="114.730811" cy="31.7112348" r="1.6434335"/></g><text class="cls-2" transform="translate(32.9052461 58.5455188)"><tspan class="cls-8" x="0" y="0">フ</tspan><tspan class="cls-9" x="11.7548828" y="0">ラ</tspan><tspan class="cls-12" x="22.7431641" y="0">ワ</tspan><tspan class="cls-6" x="35.9580078" y="0">ー</tspan><tspan class="cls-10" x="50.7832031" y="0">セ</tspan><tspan class="cls-5" x="62.7041016" y="0">ン</tspan><tspan class="cls-11" x="74.9560547" y="0">タ</tspan><tspan x="87.9003906" y="0">ー</tspan></text><path class="cls-1" d="m130.8996676,0h.9947368s.0947368,9.3551243,0,9.4459832-1.3578947,5.6803326-1.3578947,5.6803326l-1.2947368.3473684V6.8526316s.8842105-6.8526316,1.6578947-6.8526316Z"/><path class="cls-1" d="m128.8272992,15.8866951c.0236842-.0419582.4144737-.649853.4144737-.649853l4.4644737-.8486842,1.1013158.5328947-.0592105,2.3447368-2.6526316,1.3736842-3.3394737-.1657895.0710526-2.5869891Z"/><path class="cls-1" d="m143.6733518,29.5105263c-2.3052632-5.0526316-11.7986842-11.1236842-11.7986842-11.1236842l-.3138158,1.5236842s10.0598684,9.0631579,11.3230263,9.4421053.7894737.1578947.7894737.1578947Z"/><polygon class="cls-1" points="129.839886 18.5274819 128.0101939 42.1421053 129.839886 42.1421053 131.9365097 18.5274819 129.839886 18.5274819"/><path class="cls-1" d="m128.7562466,18.4736842s-6.1771196,3.9947368-13.3142177,4.2473684l-.2740757-.3789474s7.1264513-4.2705416,9.9053986-4.408955,3.6828947-.4542029,3.6828947-.4542029v.9947368Z"/></g></g></svg>