<?xml version="1.0" encoding="UTF-8"?><svg id="_レイヤー_2" xmlns="http://www.w3.org/2000/svg" xmlns:xlink="http://www.w3.org/1999/xlink" viewBox="0 0 118.4558332 108.1977423"><defs><style>.cls-1{clip-path:url(#clippath-11);}.cls-2{clip-path:url(#clippath-2);}.cls-3{clip-path:url(#clippath-13);}.cls-4{clip-path:url(#clippath-6);}.cls-5{clip-path:url(#clippath-7);}.cls-6{clip-path:url(#clippath-1);}.cls-7{clip-path:url(#clippath-4);}.cls-8{fill:#e2779b;}.cls-9{clip-path:url(#clippath-12);}.cls-10{clip-path:url(#clippath-9);}.cls-11{clip-path:url(#clippath);}.cls-12{fill:none;}.cls-13{clip-path:url(#clippath-3);}.cls-14{clip-path:url(#clippath-8);}.cls-15{clip-path:url(#clippath-14);}.cls-16{clip-path:url(#clippath-5);}.cls-17{clip-path:url(#clippath-10);}</style><clipPath id="clippath"><path class="cls-12" d="m62.1637958,16.8674976c-.9244314.628332-1.5935944,2.0106527-2.6146443,2.3389543-.9340909.2104647-1.9107984.1202998-2.7905758-.2576174-.6642493-.2576294-1.3712831-.3871512-2.0837098-.3817103-2.9115227.2419058-5.529307,2.0334291-6.076732,5.3408038-.6361818,3.8532297-.1154581,5.2622578-1.7279159,9.095857-2.7968557,6.6532253,1.1419969,8.23269,6.4545054,10.1098241,5.7334978,2.0271493,11.212542,14.5089089,13.5876174,13.015852,3.7212871-3.6969347-8.4950233-14.7657474-7.2658517-19.4986406,3.9616229-1.4922839,5.0486352,8.3379313,7.6601156,8.8091833,1.6250175.1877122.7932738-4.0527286.0094198-8.2931635-1.0288878-5.5646431-1.9776715-11.1292861,2.8149282-6.6869974,3.8783551,3.5956183,1.5959673,10.5959907.9338512,15.4144948-.1319486.9597735-1.3603293,4.7305383-.7123788,5.4122729,1.2244498,1.2880751,3.3223012-4.1886022,3.644323-4.9064698,1.2511511-2.7921398,3.1714891-5.1200984,4.3598178-7.8933927,1.3956834-3.2563209,2.3413033-7.8839669,1.8182306-11.4819401-.6738848-4.6284309-2.2070057-4.2781379-5.4806022-5.3533694-2.9342932-.9629134-3.4243847-3.409476-6.1112951-5.3408038-.7637201-.6109785-1.703971-.9596477-2.6813976-.9943306-1.2189609,0-2.3860771.6212612-3.7409176,1.5464776"/></clipPath><clipPath id="clippath-1"><path class="cls-12" d="m36.7784903,47.2527396c-1.1097827,3.4558079,2.4457716,4.3731685,1.3564104,7.3043337-1.8889148,5.0839653-12.7236715,6.9830909-10.1514521,14.0471007,1.5708239,4.3024843,5.6235526,2.2164255,8.8154631,3.4989998,4.0181655,1.6148068,2.625634,4.1029913,2.0624974,7.6334143-.4366889,2.7387311-.4971623,6.8700058,2.5965718,8.0049078,2.2776899.8348837,5.017212-.0251433,7.1040498-1.0053264,5.2441972-2.4638322,9.8514217-7.0844073,12.7762951-12.0450768,1.2566639-2.1261108,3.2091921-4.2294511,4.3095551-6.4568783,1.6493699-3.33093-3.3513515-1.4702985-4.9025449-1.0768015-3.3152184.8396056-7.4818352,4.2757829-11.0130491,2.86126-8.1321586-3.2602458,8.2931695-6.1097132,10.2676891-6.3217897,10.9235134-1.1781179-6.1623368-4.5828721-8.2067737-6.9116157-2.4261411-2.7654325-.471252-4.3983118,2.7277414-3.4291065,2.7489419.8301858,6.0641603,5.2449882,9.2277996,5.0627768,1.8999165-.9495748-2.5046751-3.6631626-3.3921945-4.3739594l.0573335.0353541c-3.999314-5.1185284-8.2468256-9.3157654-14.9228274-10.9085927-.7890433-.1913315-1.597729-.2899155-2.4096385-.2937385-2.7285204,0-5.2866101,1.2118901-6.3037172,4.3778903"/></clipPath><clipPath id="clippath-2"><path class="cls-12" d="m94.4897762,20.2416271c-2.3397453.6228311-2.4096385,3.9859633-3.9490633,5.4633266-2.1025494,2.0177235-1.8904968.4791018-4.3700285.1822173-5.3926365-.6448226-2.9602275,6.6178832-4.3778903,10.8025604-1.0312367,3.0434714-8.9953255,13.7117163-8.272736,14.6086674,1.9054054,2.3609458,4.3283946-2.7489419,5.3172304-3.8296743,1.1482767-1.2566639,3.4055451-7.8871128,4.8695638-6.3099971.9495748,1.0249569-3.3584223,5.9864053-1.1514166,6.976811.8961482.4013468,2.0742661-.5906289,3.2037033-1.5826046s2.2038658-1.9815905,2.8981721-1.5841746c.3989858,3.0552521-3.0843143,4.2883546-4.9174536,5.8120438-4.5907339,3.8116018,4.3307675.7516398,4.9959996.471252,1.4571635-.6364454,2.8524634-1.406014,4.1681867-2.2989024,2.8291897-1.8359796,5.3751392-4.0752474,7.5572412-6.6469395,3.5382847-4.2412198,5.5245851-10.2991123-1.1836068-12.1354035.8906593-2.9138777.1979349-10.0674112-3.7794116-10.0674112-.3392075.0024508-.6766652.0491841-1.0037684.1390195"/></clipPath><clipPath id="clippath-3"><path class="cls-12" d="m96.5577804,57.74271c-4.7847379.8883103-10.1813053,1.409825-14.5701734,3.5343538-.8435365.4084056-2.8777506,1.4538079-1.8276504,2.4622742.8937992.8592361,2.9240824-.471252,3.8147417-.7987626,2.4686259-.833925,5.0330315-1.3514608,7.6318563-1.5401917,1.099572-.1036654,16.2187523-1.9124762,13.3653541,2.4559943-.6487415.9943246-2.3161839.8458854-3.9946041.6982372-1.9030565-.1680697-3.8210215-.3353724-4.2859937,1.1616274-.5764993,1.8574916,2.5235386,3.2256827,3.7032145,4.0951296.8859374.6526724,1.9690188,2.1465322,1.7954602,3.1290882-.1013164.5741264-.62832.9746941-1.8787041.9307113-1.413732-.0487047-2.7976466-1.4710655-3.723636-2.3381634-2.2148675-2.0750571-4.1901661-3.8987766-7.1378339-5.0266318-1.6690004-.6385307-5.5175143-2.3672376-6.7600366-.31416-.9275713,1.5307719,3.6246686,3.5814766,4.8067174,4.860911,1.685515,1.8368544,3.0736002,3.9258614,4.1139931,6.1913991.9425039,2.0255853,4.0637303,13.4816031,8.5013031,9.7430345,2.3043912-1.9415265,1.8370702-7.9695777,5.4515519-8.5209337,2.8785416-.4390378,4.3778903,3.3105086,7.0757785,3.3772619,3.370982.0824769,3.5045126-4.0880587,2.7261715-6.2832957-.9134297-2.5769413-3.2987398-4.3197658-4.586012-6.704285-1.7883894-3.3073686,3.9914642-6.1631398-.7264965-9.2584318-2.5196557-1.6144473-5.4649505-2.4375623-8.4565293-2.3633067-1.6913394.016946-3.3775735.188611-5.0376335.5128859"/></clipPath><clipPath id="clippath-4"><path class="cls-12" d="m82.5585875,74.6164836c.1122462.032334.2201061.0782344.3212308.1366705l-.4476906-.352654c.0424009.0706842.0840349.1445083.1264598.2159835"/></clipPath><clipPath id="clippath-5"><path class="cls-12" d="m68.8924121,67.5132188c-1.9949531,1.1089917-10.4601112,16.1794913-10.3619347,20.5605215.0644044,2.8934502.7704794,5.5709169,2.3444432,6.7301953,1.2433133.9165696,2.5612177.5317254,3.8760061.1468812.7611315-.2753304,1.5649036-.4141342,2.3743084-.4099875,2.5918499.1924221,2.43006,2.6947483,2.9350841,4.9441789.3785643,1.685491,1.216612,4.8931252,2.9672983,5.4539009,2.4072896.7704794,4.5412622-2.311462,5.3360939-4.4108715.4846026-1.2786434,1.1781179-5.6306234,2.7206586-5.9031494,1.2244498-.2151925,1.9635299,1.1781179,2.6947483,2.5777322.6888174,1.3171374,1.3697491,2.6350658,2.4394798,2.5989207,2.5832211-.0856168,2.2290091-5.5104435,2.1143181-7.2964839-.3008093-4.6543473-.4987443-8.9678333-2.2266362-13.3520034-1.0603109-2.6923993-2.158301-5.4664606-3.9019165-7.6797701-.7995536-1.0139552-5.3989163-4.6559292-4.7509658-2.2714101,1.2291716,4.5216077,4.6339258,13.4572507,2.7787831,13.0197709-.863958-.2026328-.549798-2.7670144-1.6933528-2.5517979-1.3147885.2481977,1.7930873,15.3092535-2.6295529,12.3309775-2.5455181-1.7161232-1.1341351-6.2911575-.6786067-8.7777601.273317-1.4922779-.1884912-12.1597438-1.4349444-10.3854961-.7367072,1.0493092-2.7065409,9.2749224-3.568126,10.1703036-1.021026,1.058729-2.1991439.5804302-2.4347819-.9267804-.3675626-2.3695866,1.8708423-6.1796304,2.4866026-8.4361078.31416-1.1529746.9998375-6.3335585-.7170767-6.3335585-.2371959.0111455-.4676806.0822132-.6699539.2065637"/></clipPath><clipPath id="clippath-6"><path class="cls-12" d="m110.8923338,42.0729407c-4.7289624,3.056043-9.1775369,5.8701683-14.5364012,7.7394526-4.6468211,1.7446821-9.3886068,3.2251914-14.2026107,4.4344329-2.3774483.5387963-7.5030476-.0055009-7.1637443,3.6969347.4618322,5.0344816,14.9652523-1.6705704,17.3748908-2.7112388,4.6013521-1.9702292,9.0306796-4.3201853,13.2420342-7.0255038,1.1922596-.7712703,9.1312051-5.0792554,8.1824213-6.8959161-.1179508-.2676724-.3853715-.438103-.6778157-.431979-.7571287,0-1.7821095.9087198-2.2195654,1.1914686"/></clipPath><clipPath id="clippath-7"><path class="cls-12" d="m115.4610283,36.4046293c-.4194073.2159835-.354212.8859494-.8804246,1.1129346-.4824934.10164-.9791763.1173276-1.4671346.0463438-.380386-.04161-.7639838-.0455648-1.1451368-.0117807-.9236644.1696517-1.2378004.6848745-.5969208,2.0247943.1241108.2599664.4830207.1264478.9220825-.0078498.666814-.2034238,1.5197702-.4076266,2.0176996.7720613,1.6894219,3.9961741,2.6091554,3.019119,3.4330135,1.5574733.7123548-1.2637228-1.3132065-1.6273785-1.1529986-2.6703959.1476482-.9621345,1.4184778-.9346422,1.4341534-1.8064499v-.0329932c-.0085809-.1781127-.04928-.3531933-.1201799-.5168048-.1675424-.5080921-.6522409-.8430092-1.1867467-.8199751-.4402123.019271-.8701659.139391-1.25664.351084"/></clipPath><clipPath id="clippath-8"><path class="cls-12" d="m112.8314994,45.117209c.0541696-.0541936.1107362-.1044563.1680697-.1523701.0455409-.1068173.0934786-.2152045.1484632-.3220218l-.3165329.4743919Z"/></clipPath><clipPath id="clippath-9"><path class="cls-12" d="m113.6357629,43.7364433c-.0259343.0322022-2.1504392,2.2588504.8859374,1.9635299,2.1418104-.2104946,1.0767776-2.3978578-.078522-2.3978578-.323388.0099231-.622903.172504-.8074154.4382588"/></clipPath><clipPath id="clippath-10"><path class="cls-12" d="m108.4708666,38.4254897c-.4256871.6738848-1.5025126,1.0485302-.040843,2.1928761,0,.7720613,1.1930266.9699843,1.7797366.2874587.5238636-.6094805.2521046-1.6988417.1272268-2.2918315-.0511975-.4666739-.4232423-.833146-.8906353-.8773086-.4228588.0448937-.7921233.3059507-.9754851.6895964"/></clipPath><clipPath id="clippath-11"><path class="cls-12" d="m110.4383634,46.807401c-.7728523.0172816-.9487838,1.2103081-.2568504,1.7844585,1.4812762,1.2283807,4.0707772-.863958,2.4135694-2.0742661-.1529693-.1167284-.3400703-.1799343-.5324924-.1798624-.5356563,0-1.0650328.4555284-1.6242266.471252"/></clipPath><clipPath id="clippath-12"><path class="cls-12" d="m106.6942939,41.0511238c-.5552629.2152045-.3565609.8890893-.6126443,1.3108576-.2678282.4382588.3361394.9660534.9063589.785412,1.0995959-.3487231,1.0131642-2.1677327.0565665-2.1677327-.1199402.0019894-.2384423.0262339-.3495141.0714752"/></clipPath><clipPath id="clippath-13"><path class="cls-12" d="m107.5770554,47.9376141c-.5552629.2151925-.3565609.8890773-.6134113,1.3116485-.2678282.4382708.3369544.9660653.9063589.785412,1.0995959-.3487231,1.0131642-2.1685117.0565665-2.1677447-.1201799.0019894-.2389217.0262219-.3502811.0714752"/></clipPath><clipPath id="clippath-14"><path class="cls-12" d="m2.693963,1.1686874c-.5081616,2.3083259,1.2786507,5.7036614,1.9415383,7.7386642C6.145063,13.541282.0015706,9.6927636.0298457,13.3708483c.0298457,3.5901189,8.1572884,7.4386358,4.3983069,8.6010466-4.3983069,1.3611188,1.4797164,4.6598496,3.0913818,6.8181596-.7492826.863952-2.4646228,1.5024917-2.2195744,2.8848184.4712471,2.6358418,4.7218968,3.2366814,6.6760017,3.7786176.5827754.1617959,2.265913.549789,2.5588725,1.2464502.628329,1.5032797-.2638988.8600271-.8953692,1.7875984-1.1050743,1.6242326-2.1151143,2.2470637.4099845,3.6804411,1.7530398.9951156,3.8273119.7233655,5.8387526.4523975,1.8543577-.2497616,3.6553068-.5003082,5.1051778.2419058-.3974189,1.9886643-2.2030808,4.2812808,1.4671496,3.7063605,2.5659396-.4029167,4.7698053-2.0577785,7.2627057-2.7489419,2.6931783-.7469269,6.1639128-1.4137409,4.0205234-4.9198205-1.5111325-2.4756189-4.7313203-3.8532297-6.8456504-5.7335068-3.7998241-3.3851267-17.1015603-17.6953321-14.5976672-17.2303675,3.1330086.5819897,19.2103925,15.0461352,24.1561293,19.7923821,5.17508,4.9677313,3.762124.5160168,3.8171026-3.5964003.0565486-4.2490786,1.8252984-8.1792799,1.1781179-12.5720893-.235623-1.5810347-.4649631-4.2891351-2.6059975-4.2914915-.6332336.0266774-1.2132743.3617337-1.5527604.8969406-.5819912.7210076-.9739122,1.4412317-2.19444.3008123-1.0288908-.961345-.9927607-3.6128953-1.7750297-4.9394555-.6762398-1.1482722-1.9101213-2.7732898-3.1989814-3.1997679-1.3823237-.4571096-2.07663.4665346-2.7128118,1.3901795-.6581762.9558464-1.2566579,1.9116927-2.4795468,1.3352002-.1866426-.0897642-.3646324-.1965058-.5317224-.3188774-2.3381754-1.6800021-3.4636711-9.572607-7.4001552-9.5828174-2.3813688-.0054979-2.8039205,3.9105661-4.5121909,4.4682086-.8890863.2874609-3.3207223-1.2503759-5.9047269-2.7882124C8.2099113,1.4200192,5.7107302.0062777,4.1595417.0062777c-.7215375-.0693858-1.3688529.4440261-1.4655787,1.1624097"/></clipPath></defs><g id="_レイヤー_1-2"><g id="_グループ_61"><g id="_グループ_32"><g class="cls-11"><g id="_グループ_31"><rect id="_長方形_15" class="cls-8" x="44.0757502" y="15.3210261" width="36.6253308" height="42.3038589"/></g></g></g><g id="_グループ_34"><g class="cls-6"><g id="_グループ_33"><rect id="_長方形_16" class="cls-8" x="25.4088627" y="42.8748493" width="45.5138391" height="45.7015513"/></g></g></g><g id="_グループ_36"><g class="cls-2"><g id="_グループ_35"><rect id="_長方形_17" class="cls-8" x="72.7966956" y="20.1026136" width="33.1844405" height="34.4866543"/></g></g></g><g id="_グループ_38"><g class="cls-13"><g id="_グループ_37"><rect id="_長方形_18" class="cls-8" x="79.1098369" y="57.2298241" width="37.0329604" height="33.4946786"/></g></g></g><g id="_グループ_40"><g class="cls-7"><g id="_グループ_39"><rect id="_長方形_19" class="cls-8" x="82.4321278" y="74.4005001" width=".4476848" height=".35265"/></g></g></g><g id="_グループ_42"><g class="cls-16"><g id="_グループ_41"><rect id="_長方形_20" class="cls-8" x="56.8849999" y="65.6329304" width="33.4640459" height="41.259262" transform="translate(-6.8416057 6.343198) rotate(-4.715)"/></g></g></g><g id="_グループ_44"><g class="cls-4"><g id="_グループ_43"><rect id="_長方形_21" class="cls-8" x="74.6502643" y="40.8783322" width="40.0874275" height="22.0991358"/></g></g></g><g id="_グループ_46"><g class="cls-5"><g id="_グループ_45"><rect id="_長方形_22" class="cls-8" x="110.7297358" y="36.0535452" width="7.7260974" height="8.2845257"/></g></g></g><g id="_グループ_48"><g class="cls-14"><g id="_グループ_47"><rect id="_長方形_23" class="cls-8" x="112.8314994" y="44.6420262" width=".316521" height=".4751743"/></g></g></g><g id="_グループ_50"><g class="cls-10"><g id="_グループ_49"><rect id="_長方形_24" class="cls-8" x="111.4868773" y="43.2981845" width="5.178221" height="2.6971047"/></g></g></g><g id="_グループ_52"><g class="cls-17"><g id="_グループ_51"><rect id="_長方形_25" class="cls-8" x="106.343838" y="37.1334935" width="5.0140697" height="5.058053" transform="translate(-6.6856645 48.2028103) rotate(-24.247999)"/></g></g></g><g id="_グループ_54"><g class="cls-1"><g id="_グループ_53"><rect id="_長方形_26" class="cls-8" x="108.9753308" y="45.488503" width="5.7924132" height="5.1805774" transform="translate(-9.8208972 52.293344) rotate(-25.2400006)"/></g></g></g><g id="_グループ_56"><g class="cls-9"><g id="_グループ_55"><rect id="_長方形_27" class="cls-8" x="105.6350969" y="40.8743745" width="2.6248468" height="2.5588721" transform="translate(51.2475323 142.7133809) rotate(-82.529999)"/></g></g></g><g id="_グループ_58"><g class="cls-3"><g id="_グループ_57"><rect id="_長方形_28" class="cls-8" x="106.5202553" y="47.757725" width="2.6248468" height="2.5588721" transform="translate(45.1926819 149.5794932) rotate(-82.529999)"/></g></g></g><g id="_グループ_60"><g class="cls-15"><g id="_グループ_59"><rect id="_長方形_29" class="cls-8" y=".0070631" width="46.0981852" height="47.1364987"/></g></g></g></g></g></svg>