<?xml version="1.0" encoding="UTF-8"?><svg id="_レイヤー_2" xmlns="http://www.w3.org/2000/svg" viewBox="0 0 163.13 70.66"><defs><style>.cls-1{fill:#fff;}.cls-2{fill:#bde4ff;}.cls-3{fill:#f4ac45;}.cls-4{fill:#0268b9;}</style></defs><g id="_レイヤー_1-2"><g><g><path class="cls-2" d="m114.87,51.98c-.05-.24.26-9.25.26-9.25h27.51v9.45l-27.77-.2Z"/><rect class="cls-1" x="117.94" y="45.94" width="4.34" height="3.56"/><rect class="cls-1" x="126.58" y="45.94" width="4.34" height="3.56"/><rect class="cls-1" x="135.29" y="45.94" width="4.34" height="3.56"/><rect class="cls-1" x="122.84" y="34.03" width="5.47" height="8.7"/><rect class="cls-1" x="131.28" y="34.03" width="5.47" height="8.7"/><rect class="cls-3" x="124.49" y="31.01" width="2.16" height="3.02"/><rect class="cls-3" x="132.94" y="31.01" width="2.16" height="3.02"/><polygon class="cls-1" points="72.91 52.18 163.13 52.18 152.43 70.66 83.45 61.44 72.91 52.18"/><path class="cls-4" d="m83.45,61.44c-.02-.26,74.39-.12,74.39-.12l-5.4,9.34-56.06-.26s-12.61-4.01-12.92-8.96Z"/></g><g><path class="cls-2" d="m22.4,11.2c-.03-.13.14-4.94.14-4.94h14.69v5.05l-14.83-.11Z"/><rect class="cls-1" x="24.04" y="7.97" width="2.32" height="1.9"/><rect class="cls-1" x="28.65" y="7.97" width="2.32" height="1.9"/><rect class="cls-1" x="33.3" y="7.97" width="2.32" height="1.9"/><rect class="cls-1" x="26.66" y="1.61" width="2.92" height="4.65"/><rect class="cls-1" x="31.16" y="1.61" width="2.92" height="4.65"/><rect class="cls-3" x="27.54" width="1.15" height="1.61"/><rect class="cls-3" x="32.05" width="1.15" height="1.61"/><polygon class="cls-1" points="0 11.3 48.16 11.3 42.46 21.17 5.63 16.24 0 11.3"/><path class="cls-4" d="m5.63,16.24c0-.14,39.71-.06,39.71-.06l-2.88,4.98-29.93-.14s-6.73-2.14-6.9-4.78Z"/></g></g></g></svg>