<?xml version="1.0" encoding="UTF-8"?><svg id="_レイヤー_2" xmlns="http://www.w3.org/2000/svg" xmlns:xlink="http://www.w3.org/1999/xlink" viewBox="0 0 270 140"><defs><style>.cls-1{fill:#fff;}.cls-2{stroke:#fff;stroke-miterlimit:10;}.cls-2,.cls-3{fill:#4497bb;}.cls-4{clip-path:url(#clippath);}</style><clipPath id="clippath"><rect class="cls-3" width="270" height="140"/></clipPath></defs><g id="_レイヤー_1-2"><g><rect class="cls-3" width="270" height="140"/><g class="cls-4"><path class="cls-2" d="m85.29-128.58c.28.02,1.59.26,2.85,1.75s1.94,2.38,1.96,2.47.46.81,1.17,3.48,5.05,2.66,5.05,2.66c0,0,4.67-1.46,9.68,3.45s4.29,8.5,4.29,8.5c0,0-.99,3.12-1.2,3.44s-.98,2.84,2.52,5.27,11.74,2.29,18.23-1.67c0,0,1.21-.97,1.6-1.95s.47-4.42,5.64-2.72c0,0,.76.08-.27,1.31,0,0-.78,7.17-.47,11.54,0,0-.53,2.61-1.61,5.63-1.07,3.02.92,4.49.92,4.49,0,0,1.44.92,7.8,3.13,0,0,1.08.24,3.28,2.76s12.03,10.75,17.78,12.43,9.57,1.39,11.26,4.78-3.48,23.69-8.5,35.45c-5.02,11.76-4.74,8.48-8.01,21.6,0,0-.94,5.56.83,10.88,0,0,1.06,4.91-.26,10.46s-10.73,12.96-10.73,12.96c0,0-7.19,7.96-9.89,8.82s-8.55-2.75-9.74-2.43-2.56-.62-9.08,5.47c-6.52,6.09-20.8,6.56-20.8,6.56,0,0-1.99-.94-8.84,9.13,0,0-.54,2.18-1.27,8.55,0,0-.58,1.33-6.11-1.05s-5.23-4.87-13.26-5.46c-8.03-.58-11.84-5.56-16.84-10.8,0,0-3.55-3.91-12.57-4.55-9.02-.64-14.87-4.97-18.23-24.91,0,0-2.16-12.29-3-13.22,0,0-.76-2.61,1-3.99s4.41-2.14,6.13-3.68c0,0,2.66-2.04,3.92-4.44,0,0,1.05-1.08,3.66-.91s4.54-2.36,5.39-4.91,3.34-10.29,4.71-11.36,7.01-5.9,7.56-6.76.22-6.77,3.15-8.77c2.92-2-1.45-12.27-1.45-12.27,0,0-4.97-11.84-4.84-12.5s-1.74,3.78-5.28-1.37c-3.53-5.15-2.94-15.16-2.42-16.33s1.05-6.16,15.03-10.19c13.98-4.03,15.3-7.18,16.98-14.63,1.68-7.45,1.11-16.83,6.26-23.41,0,0,2.92-2.96,6.04-2.7Z"/><circle class="cls-1" cx="64.02" cy="21.97" r="5.15"/></g></g></g></svg>