<?xml version="1.0" encoding="UTF-8"?><svg id="_レイヤー_2" xmlns="http://www.w3.org/2000/svg" viewBox="0 0 152.4500584 153.8156791"><defs><style>.cls-1{letter-spacing:-.2909875em;}.cls-2{fill:#58a7bc;}.cls-3{fill:#d8d8d8;}.cls-4{letter-spacing:-.2659686em;}.cls-5{stroke-width:.5367296px;}.cls-5,.cls-6{fill:none;stroke:#fff;stroke-miterlimit:10;}.cls-7{letter-spacing:-.209931em;}.cls-8{letter-spacing:-.1219748em;}.cls-9{fill:#fff;font-family:VDL-YotaG-Medium-90ms-RKSJ-H, VDL-YotaG;font-size:16.2767391px;font-weight:500;}.cls-10{letter-spacing:.00006em;}.cls-11{letter-spacing:-.185992em;}.cls-12{fill:#5daf51;}.cls-6{stroke-width:.501499px;}</style></defs><g id="_レイヤー_1-2"><g><ellipse class="cls-12" cx="76.2250292" cy="130.1562972" rx="76.2250292" ry="23.6593819"/><polygon class="cls-3" points="63.2388437 32.443049 85.5370744 32.443049 95.9260227 127.7166137 54.3702293 127.7166137 63.2388437 32.443049"/><path class="cls-2" d="m51.5829504.0085654c-.506778,1.7737229,11.6558933,32.4344837,11.6558933,32.4344837h20.7778967L95.9260227.0085654h-44.3430723Z"/><polygon class="cls-2" points="66.7862895 127.7166137 70.0803463 32.443049 78.4421828 32.443049 83.0031845 127.7166137 66.7862895 127.7166137"/><line class="cls-5" x1="72.7409306" y1="32.443049" x2="72.7409306" y2="127.7166137"/><line class="cls-5" x1="76.2250292" y1="32.443049" x2="76.2250292" y2="127.7166137"/><line class="cls-6" x1="71.1889231" y1=".0085654" x2="70.0803463" y2="32.443049"/><line class="cls-6" x1="77.7486826" y1=".0085654" x2="78.8572594" y2="32.443049"/><text class="cls-9" transform="translate(37.9855862 146.0282238)"><tspan class="cls-7" x="0" y="0">マ</tspan><tspan class="cls-1" x="12.859375" y="0">リ</tspan><tspan class="cls-11" x="24.3994141" y="0">ン</tspan><tspan class="cls-4" x="37.6484375" y="0">タ</tspan><tspan class="cls-8" x="49.5957031" y="0">ワ</tspan><tspan class="cls-10" x="63.8867188" y="0">ー</tspan></text></g></g></svg>