<?xml version="1.0" encoding="UTF-8"?><svg id="_レイヤー_2" xmlns="http://www.w3.org/2000/svg" viewBox="0 0 110.05 114.59"><defs><style>.cls-1,.cls-2{fill:#fff;}.cls-3{letter-spacing:-.15em;}.cls-4{letter-spacing:-.27em;}.cls-5{letter-spacing:-.26em;}.cls-6{fill:none;stroke:#fff;stroke-miterlimit:10;}.cls-7{letter-spacing:-.38em;}.cls-8{letter-spacing:-.11em;}.cls-2{font-family:VDL-YotaG-Medium-90ms-RKSJ-H, VDL-YotaG;font-size:11.64px;font-weight:500;}.cls-9{letter-spacing:-.36em;}</style></defs><g id="_レイヤー_1-2"><g><ellipse class="cls-6" cx="55.03" cy="97.16" rx="54.53" ry="16.92"/><g><g><circle class="cls-6" cx="54.88" cy="31.26" r="30.76"/><path class="cls-6" d="m13.7,59.14c.47-.28,9.73-6.03,20.27-5.12s55.04-.38,57.98-2.27,3.69,3.69,3.69,3.69c0,0-9.19,22.74-10.42,22.93s-15.44,2.18-15.44,2.18c0,0-35.62-4.36-44.34-.76-8.72,3.6-11.75-20.65-11.75-20.65Z"/><path class="cls-6" d="m4.35,9.75s6.88-5.31,12.69-3.98c5.81,1.33,21.22,7.58,22.61,10.23,1.39,2.65.32,6.06.32,6.06,0,0-27.41-1.33-30-3.03S1.89,12.97,4.35,9.75Z"/><path class="cls-6" d="m40.55,16.7c.06-.25,7.07-8.53,13.39-6.19,6.32,2.34,12.32,15.03,12.32,15.03,0,0,.82,8.34-5.68,10.42-6.51,2.08-16.17-2.02-19.14-8.4-2.97-6.38-.88-10.86-.88-10.86Z"/><polygon class="cls-6" points="39.38 22.07 34.66 26.68 40.6 26.68 39.38 22.07"/><ellipse class="cls-6" cx="47.45" cy="21.5" rx="2.68" ry="3.16"/><circle class="cls-1" cx="46.51" cy="20.03" r=".67"/><path class="cls-6" d="m65.23,22.51l.95,5.56s16.86,5.31,22.67,6.51c1.81.37,4.02.82,6.23,1.17,4.9.77,9.87,1.03,10.79-1.17,1.33-3.19-5.4-11.11-8.34-11.27s-23.02-3.6-32.31-.79Z"/><path class="cls-6" d="m38.68,57.41c-.15,1.23,19.49,10.88,32.87.54,13.34-10.31,13.75-19.76,12.96-19.89l-45.83,19.36Z"/><path class="cls-6" d="m53.39,93.91l5.78,1.14,11.08-17.24s-17.81,0-20.56-2.08c-2.75-2.08-9.85-1.04-9.85-1.04l13.55,19.23Z"/></g><path class="cls-6" d="m17.36,5.56s-5.43,11.28-4.98,13.75c.45,2.46-9.56-3.32-8.65-8.78.9-5.46,13.63-4.97,13.63-4.97Z"/><path class="cls-6" d="m92.94,35.54l4.64-12.22s8.81,3.13,9.05,9.52c.24,6.39-13.69,2.7-13.69,2.7Z"/></g><text class="cls-2" transform="translate(24.31 107.91)"><tspan class="cls-9" x="0" y="0">ら</tspan><tspan class="cls-7" x="7.5" y="0">・</tspan><tspan class="cls-9" x="14.73" y="0">ら</tspan><tspan class="cls-4" x="22.23" y="0">・</tspan><tspan class="cls-8" x="30.74" y="0">み</tspan><tspan class="cls-5" x="41.11" y="0">ゅ</tspan><tspan class="cls-3" x="49.67" y="0">う</tspan></text></g></g></svg>