<?xml version="1.0" encoding="UTF-8"?><svg id="_レイヤー_2" xmlns="http://www.w3.org/2000/svg" viewBox="0 0 109.050326 113.5875827"><defs><style>.cls-1,.cls-2{fill:#fff;}.cls-3{letter-spacing:-.1450201em;}.cls-4{fill:#cde9fa;}.cls-5{letter-spacing:-.2689037em;}.cls-6{letter-spacing:-.2649616em;}.cls-7{letter-spacing:-.3789479em;}.cls-8{letter-spacing:-.1089538em;}.cls-2{font-family:VDL-YotaG-Medium-90ms-RKSJ-H, VDL-YotaG;font-size:11.6430502px;font-weight:500;}.cls-9{fill:#e60871;}.cls-10{fill:#bdddf4;}.cls-11{fill:#f7e248;}.cls-12{letter-spacing:-.3559661em;}.cls-13{fill:#5daf51;}</style></defs><g id="_レイヤー_1-2"><g><ellipse class="cls-13" cx="54.525163" cy="96.6635925" rx="54.525163" ry="16.9239903"/><g><g><circle class="cls-4" cx="54.3812838" cy="30.7578947" r="30.7578947"/><path class="cls-11" d="m13.1957144,58.641509c.4736842-.2842105,9.7313475-6.0312752,20.2736842-5.1157895s55.0421053-.3789474,57.9789474-2.2736842,3.6947368,3.6947368,3.6947368,3.6947368c0,0-9.1894737,22.7368421-10.4210526,22.9263158s-15.4421053,2.1789474-15.4421053,2.1789474c0,0-35.6210526-4.3578947-44.3368421-.7578947-8.7157895,3.6-11.7473684-20.6526316-11.7473684-20.6526316Z"/><path class="cls-1" d="m3.848346,9.2520354s6.8842105-5.3052632,12.6947368-3.9789474c5.8105263,1.3263158,21.2210526,7.5789474,22.6105263,10.2315789,1.3894737,2.6526316.3157895,6.0631579.3157895,6.0631579,0,0-27.4105263-1.3263158-30-3.0315789S1.3851881,12.473088,3.848346,9.2520354Z"/><path class="cls-1" d="m39.5957144,16.1994038c.0631579-.2526316,7.0736842-8.5263158,13.3894737-6.1894737,6.3157895,2.3368421,12.3157895,15.0315789,12.3157895,15.0315789,0,0,.8210526,8.3368421-5.6842105,10.4210526-6.5052632,2.0842105-16.1684211-2.0210526-19.1368421-8.4s-.8842105-10.8631579-.8842105-10.8631579Z"/><polygon class="cls-9" points="38.8847096 21.5678248 34.1641355 26.1783512 40.0955978 26.1783512 38.8847096 21.5678248"/><ellipse cx="46.9536091" cy="20.9994038" rx="2.6842105" ry="3.1578947"/><circle class="cls-1" cx="46.0141355" cy="19.5309827" r=".6710526"/><path class="cls-1" d="m64.7325565,22.0099301l.9473684,5.5578947s16.8631579,5.3052632,22.6736842,6.5052632c1.8099046.3737846,4.0150554.8241674,6.2337031,1.1707717,4.9041097.7661359,9.8741641,1.0252218,10.7873495-1.1707717,1.3263158-3.1894737-5.4-11.1107637-8.3368421-11.2711713s-23.0210526-3.6025129-32.3052632-.7919866Z"/><path class="cls-9" d="m38.1766727,56.9057212c-.1503906,1.230896,19.4850766,10.8806059,32.8716733.5357878,13.3447266-10.312439,13.7500231-19.7644255,12.9631579-19.8947356l-45.8348312,19.3589478Z"/><path class="cls-10" d="m52.8904513,93.4099301l5.7789474,1.1368421,11.0842105-17.2421053s-17.8105263,0-20.5578947-2.0842105c-2.7473684-2.0842105-9.8526316-1.0421053-9.8526316-1.0421053l13.5473684,19.2315789Z"/></g><path class="cls-10" d="m16.8588723,5.0602225s-5.4307596,11.2840765-4.9767726,13.7458394c.4539871,2.4617629-9.5573257-3.3170596-8.6540136-8.7760969.903312-5.4590373,13.6307862-4.9697426,13.6307862-4.9697426Z"/><path class="cls-10" d="m92.4430828,35.0404914l4.6421053-12.2210526s8.808829,3.1315706,9.0465198,9.52368c.2376907,6.3921094-13.688625,2.6973726-13.688625,2.6973726Z"/></g><text class="cls-2" transform="translate(23.8090551 107.4089345)"><tspan class="cls-12" x="0" y="0">ら</tspan><tspan class="cls-7" x="7.4980469" y="0">・</tspan><tspan class="cls-12" x="14.7285156" y="0">ら</tspan><tspan class="cls-5" x="22.2265625" y="0">・</tspan><tspan class="cls-8" x="30.7382812" y="0">み</tspan><tspan class="cls-6" x="41.1123047" y="0">ゅ</tspan><tspan class="cls-3" x="49.6699219" y="0">う</tspan></text></g></g></svg>