<?xml version="1.0" encoding="UTF-8"?><svg id="_レイヤー_2" xmlns="http://www.w3.org/2000/svg" viewBox="0 0 398.1616389 231.46521"><defs><style>.cls-1{fill:#fff;}</style></defs><g id="_レイヤー_16"><g id="_レイヤー_8"><g id="_レイヤー_9"><g><path class="cls-1" d="m243.3105037,0C157.7881648,0,37.0232112,115.732605,37.0232112,115.732605c0,0,120.7866211,115.732605,206.2872925,115.732605s154.8511353-58.916687,154.8511353-115.732605C398.1616389,58.916748,328.8328425,0,243.3105037,0Zm65.2682495,134.0975952c-7.8768311,0-14.6084595-7.0029297-17.3716431-16.899292l17.3716431-10.0429688-17.3716431-10.0375366c2.7686768-9.9017944,9.5055542-16.9047241,17.3716431-16.9047241,10.352417,0,18.739563,12.0569458,18.739563,26.9422607,0,14.8852539-8.3872681,26.9422607-18.739563,26.9422607Z"/><path id="_パス_978" class="cls-1" d="m126.1880845,115.7326398l-63.10216-36.4314144L0,42.869811v145.7256576l63.0966929-36.4314144,63.0913915-36.4314144Z"/></g></g></g></g></svg>