<?xml version="1.0" encoding="UTF-8"?><svg id="_レイヤー_2" xmlns="http://www.w3.org/2000/svg" xmlns:xlink="http://www.w3.org/1999/xlink" viewBox="0 0 191.1543662 131.9593872"><defs><style>.cls-1{fill:#fff;font-family:VDL-YotaG-Medium-90ms-RKSJ-H, VDL-YotaG;font-size:17.8469601px;font-weight:500;}.cls-2{fill:#c19939;}.cls-3{fill:#8c8c8c;}.cls-4,.cls-5{fill:#eaeaea;}.cls-5{stroke:#eaeaea;stroke-miterlimit:10;stroke-width:1.5328426px;}.cls-6{fill:url(#_名称未設定グラデーション_36);}.cls-7{fill:#5daf51;}</style><linearGradient id="_名称未設定グラデーション_36" x1="101.5367973" y1="82.8409486" x2="101.4432853" y2="70.4461788" gradientUnits="userSpaceOnUse"><stop offset="0" stop-color="#95bf58"/><stop offset=".6920162" stop-color="#51a851"/></linearGradient></defs><g id="_レイヤー_1-2"><g><ellipse class="cls-7" cx="95.5771831" cy="107.1352564" rx="95.5771831" ry="24.8241308"/><path class="cls-2" d="m47.6072774,99.3196278c0-.43565.2904333-4.9373667,6.3895334-8.4225667,6.0991-3.4852,25.8485668-18.1520834,28.3172501-17.5712167s29.4789834,0,29.4789834,0l19.4590334.8713s13.6503667,23.0894501,8.4225667,28.3172501-21.3468501,1.0165167-24.2511834,2.0330333-16.2158612-.2904333-22.556989,0c-6.3411278.2904333-21.1532279-.1452167-29.7210112-.43565-8.5677834-.2904333-15.5381834-1.1617333-15.5381834-1.1617333v-3.6304167Z"/><path class="cls-4" d="m92.0435776,10.4470275c0,.5808667-3.7756333,62.8788169-3.7756333,62.8788169h22.7990167l-3.3399833-62.8788169h-15.6834001Z"/><path class="cls-4" d="m99.1107887,1.2499719s-5.3246111.1452167-5.1309889,9.1970556h11.0364667s.9681111-9.4390834-5.9054778-9.1970556Z"/><rect class="cls-3" x="91.0270609" y="11.2457191" width="18.1520834" height="4.0660667" rx=".5921053" ry=".5921053"/><rect class="cls-3" x="91.0270609" y="18.9966588" width="18.1520834" height="4.0660667" rx=".7638158" ry=".7638158"/><line class="cls-5" x1="99.104738" y1=".0095795" x2="99.1228901" y2="1.4617462"/><rect class="cls-3" x="103.4188832" y="26.9049164" width="3.2915778" height="3.2915778"/><rect class="cls-3" x="92.866472" y="44.7181609" width="2.7107111" height="2.7107111"/><rect class="cls-3" x="103.4188832" y="59.6270721" width="3.4852" height="3.4852"/><path class="cls-6" d="m68.3732608,73.3090609c-1.5489778,4.8089335-.8713,7.6164558-.8713,7.6164558l5.6150445,2.1298445,11.2300889-.6776778s4.0660667.6776778,7.40605-.6292722,9.8747334.5808667,10.89125.5808667,10.4556-.5808667,10.4556-.5808667h7.40605s4.79215,1.8878167,6.6799667-.7260833,7.0517329,2.641653,7.2288915-1.0026402c.1771585-3.6442932,3.0814919-1.7564765-.6941415-5.2416765s-1.571717-3.6227652-6.9704-2.3234667c-5.398683,1.2992985-9.2938667.2904333-12.9242834.1452167s-5.0825834-2.2371717-11.0364667-.9007609-4.5017167,2.0289272-13.50515,1.6100607-11.0364667-4.1083208-15.9738334-2.0541604l-4.9373667,2.0541604Z"/><text class="cls-1" transform="translate(54.62763 123.7168994)"><tspan x="0" y="0">塩野崎灯台</tspan></text></g></g></svg>