<?xml version="1.0" encoding="UTF-8"?><svg id="_レイヤー_2" xmlns="http://www.w3.org/2000/svg" viewBox="0 0 539.37 239.11"><defs><style>.cls-1{letter-spacing:-.19em;}.cls-2{letter-spacing:-.31em;}.cls-3{fill:#dac465;}.cls-4{letter-spacing:-.11em;}.cls-5{fill:#8d8d8d;}.cls-6{fill:#3ca53a;}.cls-7{letter-spacing:-.06em;}.cls-8{fill:#5da851;}.cls-9{fill:#ec6644;}.cls-10{fill:#d3d3d3;}.cls-11{letter-spacing:-.15em;}.cls-12{fill:#fff;font-family:VDL-YotaG-Medium-90ms-RKSJ-H, VDL-YotaG;font-size:43.97px;font-weight:500;}.cls-13{letter-spacing:-.07em;}.cls-14{letter-spacing:-.09em;}</style></defs><g id="_レイヤー_5"><g><ellipse class="cls-8" cx="239.48" cy="177.95" rx="235.5" ry="61.17"/><text class="cls-12" transform="translate(81.22 214.72)"><tspan class="cls-7" x="0" y="0">道</tspan><tspan class="cls-13" x="41.25" y="0">の</tspan><tspan class="cls-14" x="81.97" y="0">駅</tspan><tspan class="cls-11" x="121.77" y="0">よ</tspan><tspan class="cls-1" x="159.19" y="0">つ</tspan><tspan class="cls-2" x="194.68" y="0">く</tspan><tspan class="cls-4" x="225.02" y="0">ら</tspan><tspan x="264.2" y="0">港</tspan></text></g></g><g id="_レイヤー_4"><g><polygon class="cls-9" points="246.24 93.36 246.24 138.01 356.65 138.01 356.65 91.53 246.24 93.36"/><polygon class="cls-10" points="40.08 63.92 0 95.88 23.44 95.65 368.28 92.25 362.23 63.92 40.08 63.92"/><polygon class="cls-5" points="23.24 169.98 22.52 95.65 246.24 93.36 246.24 138.01 246.24 169.98 23.24 169.98"/><rect class="cls-10" x="22.52" y="143.11" width="223.72" height="26.86"/><rect class="cls-5" x="98.06" y="146.01" width="31.23" height="21.07"/><rect class="cls-5" x="139.71" y="146.01" width="31.23" height="21.07"/><rect class="cls-5" x="56.9" y="146.01" width="31.23" height="21.07"/><rect class="cls-5" x="181.14" y="146.01" width="31.23" height="21.07"/><rect class="cls-5" x="261.32" y="44.31" width="69.91" height="19.61"/></g></g><g id="_レイヤー_3"><g><path class="cls-3" d="m442.17,86.5c-.24,1.45-13.32,81.35-.73,108.72h-31.23s17.68-114.77,30.75-112.59l1.21,3.87Z"/><path class="cls-6" d="m449.25,22.09c-4.19-8.04-10.14-15.62-18.86-18.96-7.18-2.75-20.36-4.72-27.57-1.35,5.6-2.62,20.89,7.16,24.94,10.44-9.48-5.03-19.65-2.83-28.09,4.88,11.77-3.91,21.66,4.86,30.7,10.72-6.37-3.18-14.68-.45-19.81,5.28,2.4-2.68,12.65.9,15.28,1.85,5.08,1.83,9.76,4.92,13.21,9.16-4.87-2.41-11.2-3.53-15.89-.09,8.13,1.59,17.6,8.32,20.03,16.56,1.57,5.34.42,17.27-3.49,21.81,17.67-20.52,16.01-47.89,9.54-60.3Z"/><path class="cls-6" d="m441.22,65.9c-7.23-18.48-30.38-32.79-50.61-33.7-9.79-.44-19.53,2.13-27.9,7.23-8.51,5.18-20.11,16.22-23.02,25.89,1.43-4.75,11.74-9.4,15.79-11.4,6.4-3.16,11.98-5.02,19.22-5.38-7.37,3.43-14.44,15.99-14.56,23.93,4.62-9.02,16.51-13.3,26.01-14.31-3.84,6.02-7.93,12.88-7.92,20.38,3.69-7.31,14.96-13.62,22.88-13.95-5.68,3.29-9.66,11.72-9.27,18.32,14.17-12.05,19.58-13.46,31.9-14.2-10.61,5.18-11.97,7.4-18.99,15.28,15.54-11.51,33.33-3.55,30.64,10.29,3.02-6.07,12.08-12.36,5.81-28.4Z"/><path class="cls-6" d="m442.31,65.4c12.42-15.48,38.79-22.21,58.37-17.03,9.48,2.51,18,7.87,24.46,15.23,6.57,7.49,14.35,21.49,14.23,31.58.06-4.96-8.4-12.48-11.66-15.6-5.17-4.93-9.94-8.37-16.73-10.88,6.01,5.47,9,19.57,6.75,27.19-1.72-9.99-11.78-17.63-20.55-21.43,1.87,6.89,3.72,14.66,1.47,21.82-1.34-8.08-10.21-17.47-17.67-20.15,4.44,4.83,5.72,14.07,3.37,20.26-9.92-15.74-14.67-18.69-26.2-23.08,8.58,8.12,9.21,10.64,13.55,20.26-11.39-15.63-30.74-13.35-32.32.67-1.07-6.69-7.84-15.4,2.94-28.84Z"/></g></g></svg>