<?xml version="1.0" encoding="UTF-8"?><svg id="_レイヤー_2" xmlns="http://www.w3.org/2000/svg" viewBox="0 0 190.8277898 106.0506955"><defs><style>.cls-1{fill:#765428;}.cls-2{letter-spacing:-.2219336em;}.cls-3{letter-spacing:.0000839em;}.cls-4{letter-spacing:-.0739779em;}.cls-5{fill:#6b5b2a;}.cls-6{letter-spacing:-.1259805em;}.cls-7{fill:#fff;font-family:VDL-YotaG-Medium-90ms-RKSJ-H, VDL-YotaG;font-size:11.6430502px;font-weight:500;}.cls-8{fill:#56555b;}.cls-9{fill:#5daf51;}.cls-10{fill:#e0c088;}.cls-11{letter-spacing:-.1929128em;}.cls-12{fill:#27b130;}</style></defs><g id="_レイヤー_1-2"><g><ellipse class="cls-9" cx="95.4138949" cy="76.4353081" rx="95.4138949" ry="29.6153875"/><path class="cls-10" d="m68.7219643,46.2863006s-1.3295885,31.6442069,0,31.6442069,65.6400743-.8169987,66.6650622.1968125.1968125-31.8410194.1968125-31.8410194h-66.8618747Z"/><g><rect class="cls-5" x="34.7940281" y="59.6262068" width="10.7696671" height="15.0039801"/><ellipse class="cls-12" cx="40.4780191" cy="38.6790916" rx="20.741581" ry="23.1879693"/></g><g><rect class="cls-5" x="147.5337377" y="63.7500355" width="7.809635" height="10.8801514"/><ellipse class="cls-12" cx="151.6554896" cy="48.5602137" rx="15.0407785" ry="16.8147795"/></g><g><rect class="cls-12" x="121.6083769" y="26.8300596" width="6.546964" height="9.1210357"/><ellipse class="cls-12" cx="125.063719" cy="14.0961461" rx="12.6089677" ry="14.0961461"/></g><path class="cls-8" d="m74.539355,18.6308592h53.6159859l19.3783968,27.6554413H57.0177042l17.5216508-27.6554413Z"/><rect class="cls-1" x="103.0608636" y="53.9244037" width="29.4485512" height="20.7057832"/><rect class="cls-1" x="79.0941131" y="53.9244037" width="16.3197818" height="20.7057832"/><text class="cls-7" transform="translate(57.0173033 94.1390794)"><tspan class="cls-6" x="0" y="0">暮</tspan><tspan class="cls-2" x="10.1757812" y="0">ら</tspan><tspan class="cls-11" x="19.234375" y="0">し</tspan><tspan class="cls-4" x="28.6308594" y="0">の</tspan><tspan class="cls-3" x="39.4121094" y="0">伝承郷</tspan></text></g></g></svg>